<?xml version="1.0" standalone="no"?>
<!DOCTYPE svg PUBLIC "-//W3C//DTD SVG 20010904//EN"
 "http://www.w3.org/TR/2001/REC-SVG-20010904/DTD/svg10.dtd">
<svg version="1.0" xmlns="http://www.w3.org/2000/svg"
 width="700.000000pt" height="700.000000pt" viewBox="0 0 700.000000 700.000000"
 preserveAspectRatio="xMidYMid meet">
<metadata>
Created by potrace 1.14, written by Peter Selinger 2001-2017
</metadata>
<g transform="translate(0.000000,700.000000) scale(0.100000,-0.100000)"
fill="#000000" stroke="none">
<path d="M3367 6944 c-1 -1 -53 -5 -116 -9 -62 -4 -121 -8 -130 -10 -9 -1 -41
-6 -71 -10 -348 -44 -716 -153 -1040 -308 -89 -43 -291 -154 -338 -185 -15
-11 -56 -38 -92 -62 -289 -193 -553 -437 -775 -716 -260 -326 -456 -691 -589
-1101 -57 -176 -117 -449 -132 -598 -3 -33 -7 -62 -9 -65 -2 -3 -7 -61 -11
-130 -14 -227 -6 -500 20 -697 8 -56 35 -214 41 -233 2 -8 7 -31 10 -50 20
-120 117 -434 175 -565 9 -22 21 -51 25 -65 4 -14 45 -97 89 -185 212 -415
481 -761 831 -1065 99 -86 296 -230 427 -312 132 -82 425 -234 435 -225 3 3
36 95 75 204 38 109 77 221 88 248 10 28 50 140 89 250 38 110 92 263 119 340
27 77 82 232 122 345 39 113 82 234 95 270 45 126 84 237 155 440 39 113 75
214 80 225 5 11 15 40 23 65 8 25 37 108 65 185 l49 140 -24 25 c-144 148
-199 401 -130 598 64 184 203 325 376 384 86 29 83 28 176 33 282 13 540 -177
615 -456 46 -170 -3 -391 -116 -526 -24 -28 -44 -58 -44 -66 0 -8 18 -66 41
-129 22 -62 42 -117 43 -123 2 -5 6 -17 9 -25 3 -8 47 -132 97 -275 50 -143
119 -336 152 -430 60 -170 122 -348 238 -675 34 -96 75 -212 91 -257 52 -148
86 -245 149 -423 34 -96 75 -211 91 -256 16 -44 29 -85 29 -92 0 -26 25 -20
127 30 217 107 383 208 574 349 192 142 464 402 580 554 13 17 26 32 29 35 4
3 34 41 67 85 345 458 575 1003 657 1560 25 163 25 167 33 281 11 181 5 508
-12 619 -2 11 -6 43 -10 70 -15 123 -60 348 -91 455 -52 178 -112 348 -161
460 -36 83 -166 336 -179 351 -8 8 -14 19 -14 23 0 4 -13 27 -30 51 -16 24
-30 46 -30 49 0 12 -177 259 -224 314 -13 15 -54 63 -92 107 -123 145 -341
350 -489 462 -27 21 -93 70 -120 90 -52 39 -105 73 -113 73 -6 0 -12 3 -14 8
-10 22 -474 272 -506 272 -5 0 -23 7 -39 15 -167 83 -603 200 -862 230 -30 4
-61 8 -70 10 -58 11 -504 27 -514 19z m348 -818 c95 -8 151 -15 210 -26 28 -5
66 -12 85 -15 215 -36 526 -148 755 -273 109 -60 283 -176 385 -258 120 -96
342 -321 431 -439 232 -305 397 -647 480 -995 7 -30 14 -57 14 -60 7 -27 24
-125 31 -175 3 -22 7 -51 10 -65 21 -127 21 -516 0 -640 -3 -14 -9 -56 -15
-95 -12 -77 -11 -73 -39 -200 -75 -334 -248 -694 -479 -998 -98 -128 -328
-360 -453 -457 -100 -77 -199 -144 -205 -138 -3 3 -49 131 -107 302 -28 80
-29 90 -15 98 9 5 56 41 104 80 365 298 632 713 749 1163 20 75 21 80 40 190
8 50 18 101 20 115 10 46 12 394 3 470 -47 407 -157 714 -371 1034 -282 422
-705 735 -1203 890 -193 59 -373 87 -605 91 -102 2 -212 0 -245 -5 -33 -4 -84
-11 -114 -14 -30 -4 -64 -9 -75 -11 -12 -3 -32 -7 -46 -9 -14 -2 -72 -16 -130
-31 -787 -207 -1407 -841 -1595 -1629 -27 -114 -30 -127 -51 -271 -10 -72 -12
-408 -3 -475 26 -185 33 -223 55 -314 101 -403 300 -754 591 -1043 84 -83 232
-210 271 -232 13 -8 11 -20 -16 -97 -17 -49 -47 -136 -68 -194 -20 -58 -38
-106 -39 -108 -3 -3 -37 15 -59 31 -293 211 -525 445 -706 712 -177 262 -314
585 -386 910 -2 11 -7 35 -10 54 -3 18 -8 43 -10 55 -4 21 -9 53 -19 121 -16
115 -23 445 -11 545 2 19 7 64 11 100 3 36 18 121 31 189 103 521 346 974 724
1351 248 249 511 428 835 568 65 28 271 100 305 107 8 2 35 9 60 16 25 7 54
14 65 16 11 1 40 7 65 13 117 26 205 37 345 46 55 4 101 7 102 9 5 3 223 -4
298 -9z m55 -1028 c437 -73 830 -329 1080 -702 102 -152 214 -418 235 -556 4
-25 8 -47 10 -51 18 -28 27 -395 13 -504 -38 -285 -181 -610 -360 -820 -60
-70 -168 -178 -173 -173 -4 4 -49 127 -117 318 l-34 95 58 80 c99 136 191 349
214 490 13 86 20 169 19 235 -2 78 -14 210 -20 221 -2 3 -7 21 -10 40 -26 150
-134 365 -252 506 -85 101 -233 233 -261 233 -6 0 -12 4 -14 9 -12 32 -310
157 -418 175 -330 55 -621 0 -890 -167 -241 -150 -435 -407 -516 -685 -109
-375 -30 -788 208 -1090 l34 -43 -32 -92 c-78 -221 -114 -320 -118 -324 -14
-14 -198 193 -273 307 -85 128 -177 320 -204 425 -4 17 -14 55 -22 85 -32 120
-42 208 -42 395 0 157 4 209 23 302 104 516 438 942 914 1166 137 64 359 125
508 140 106 10 333 3 440 -15z"/>
<path d="M3498 2725 c-7 -12 -334 -931 -383 -1080 -8 -22 -28 -78 -44 -124
-17 -46 -31 -87 -31 -91 0 -9 25 -15 95 -26 22 -3 43 -8 46 -10 13 -8 194 -18
319 -19 162 0 276 10 408 36 53 11 53 11 46 42 -3 18 -9 37 -13 42 -4 6 -13
28 -20 50 -7 22 -21 63 -31 90 -11 28 -63 174 -116 325 -53 151 -121 345 -151
430 -30 85 -59 169 -65 185 -5 17 -12 37 -16 45 -3 8 -13 38 -22 65 -8 28 -18
46 -22 40z"/>
<path d="M2855 918 c-4 -13 -38 -113 -77 -223 -160 -454 -178 -509 -171 -515
19 -16 333 -81 459 -95 32 -4 73 -9 89 -11 172 -22 586 -21 704 1 9 1 41 6 72
9 31 4 66 8 77 11 11 2 35 6 53 9 118 19 321 65 332 75 4 4 -17 77 -47 162
-177 504 -209 594 -211 597 -1 1 -33 -4 -71 -12 -38 -8 -87 -17 -109 -20 -22
-4 -47 -8 -55 -11 -8 -2 -42 -7 -75 -10 -33 -3 -79 -8 -103 -11 -97 -13 -414
-6 -542 11 -63 8 -121 18 -190 31 -136 27 -128 27 -135 2z"/>
</g>
</svg>
