<?xml version="1.0" encoding="UTF-8" standalone="no"?>
<svg
   width="375.17917mm"
   height="213.78333mm"
   viewBox="0 0 1418 808"
   fill="none"
   version="1.1"
   id="svg87"
   sodipodi:docname="final-export-set-d1.svg"
   xml:space="preserve"
   inkscape:version="1.2.2 (1:1.2.2+202212051552+b0a8486541)"
   xmlns:inkscape="http://www.inkscape.org/namespaces/inkscape"
   xmlns:sodipodi="http://sodipodi.sourceforge.net/DTD/sodipodi-0.dtd"
   xmlns="http://www.w3.org/2000/svg"
   xmlns:svg="http://www.w3.org/2000/svg"><sodipodi:namedview
     id="namedview89"
     pagecolor="#ffffff"
     bordercolor="#000000"
     borderopacity="0.25"
     inkscape:showpageshadow="false"
     inkscape:pageopacity="0.0"
     inkscape:pagecheckerboard="0"
     inkscape:deskcolor="#d1d1d1"
     showgrid="false"
     borderlayer="false"
     inkscape:zoom="0.10091975"
     inkscape:cx="6837.1159"
     inkscape:cy="2928.0692"
     inkscape:window-width="3108"
     inkscape:window-height="1474"
     inkscape:window-x="439"
     inkscape:window-y="370"
     inkscape:window-maximized="0"
     inkscape:current-layer="svg87"
     inkscape:document-units="mm"
     showguides="false"><sodipodi:guide
       position="-1282.534,-4249.6733"
       orientation="0,-1"
       id="guide8509"
       inkscape:locked="false" /><sodipodi:guide
       position="-1282.534,-4249.6733"
       orientation="1,0"
       id="guide8511"
       inkscape:locked="false" /><sodipodi:guide
       position="-1282.534,-5189.1529"
       orientation="0,-1"
       id="guide8513"
       inkscape:locked="false" /><sodipodi:guide
       position="-671.87332,-5189.1529"
       orientation="1,0"
       id="guide8515"
       inkscape:locked="false" /><sodipodi:guide
       position="-478.83321,-5189.1529"
       orientation="1,0"
       id="guide8517"
       inkscape:locked="false" /><sodipodi:guide
       position="131.8276,-5189.1529"
       orientation="1,0"
       id="guide8519"
       inkscape:locked="false" /><sodipodi:guide
       position="324.86781,-5189.1529"
       orientation="1,0"
       id="guide8521"
       inkscape:locked="false" /><sodipodi:guide
       position="935.52842,-5200.0329"
       orientation="1,0"
       id="guide8523"
       inkscape:locked="false" /><sodipodi:guide
       position="1128.5695,-4210.2796"
       orientation="1,0"
       id="guide26110"
       inkscape:locked="false" /><sodipodi:guide
       position="1739.2289,-4219.3274"
       orientation="1,0"
       id="guide26112"
       inkscape:locked="false" /><sodipodi:guide
       position="1932.2701,-4191.0677"
       orientation="1,0"
       id="guide26114"
       inkscape:locked="false" /><sodipodi:guide
       position="2542.9303,-4222.817"
       orientation="1,0"
       id="guide26116"
       inkscape:locked="false" /><sodipodi:guide
       position="2735.9715,-4219.0338"
       orientation="1,0"
       id="guide26118"
       inkscape:locked="false" /><sodipodi:guide
       position="3346.6313,-4203.9133"
       orientation="1,0"
       id="guide26120"
       inkscape:locked="false" /></sodipodi:namedview><defs
     id="defs85" /><g
     id="g26359"
     inkscape:label="logo-full-vertical-white-out"
     transform="translate(-2078.1958,3362.9243)"><rect
       style="font-variation-settings:normal;opacity:1;vector-effect:none;fill:none;fill-opacity:1;stroke-width:0.402048;stroke-linecap:butt;stroke-linejoin:miter;stroke-miterlimit:4;stroke-dasharray:none;stroke-dashoffset:0;stroke-opacity:1;-inkscape-stroke:none;paint-order:fill markers stroke;stop-color:#000000;stop-opacity:1"
       id="rect26277"
       width="1418"
       height="808"
       x="2078.1958"
       y="-3362.9243" /><g
       id="g26343"><path
         id="circle43982-2-6"
         style="fill:#ffffff;stroke:none;stroke-width:1.48948;stroke-linejoin:round"
         d="m 2787.1958,-3354.9239 a 252.00003,252.00003 0 0 0 -252.0001,252 252.00003,252.00003 0 0 0 150.9424,230.5899 l 70.1223,-198.6411 c -8.35,-8.0839 -13.5352,-19.4081 -13.5352,-31.9488 0,-24.56 19.9105,-44.4705 44.4706,-44.4705 24.5602,0 44.4706,19.9105 44.4706,44.4705 0,12.5414 -5.1981,23.8649 -13.5496,31.9488 l 70.1222,198.6411 a 252.00003,252.00003 0 0 0 150.9568,-230.5899 252.00003,252.00003 0 0 0 -252,-252 z m 0,59.2941 c 106.4274,0 192.7059,86.2787 192.7059,192.7059 0,67.9726 -35.2041,127.7254 -88.3621,162.0311 l -10.1912,-28.8943 c 41.6899,-29.5362 68.9063,-78.156 68.9062,-133.1368 0,-90.054 -73.0046,-163.0588 -163.0588,-163.0588 -90.0541,0 -163.0588,73.0048 -163.0589,163.0588 1e-4,54.9808 27.2157,103.6013 68.9063,133.1368 l -10.2056,28.8943 c -53.1582,-34.3057 -88.3477,-94.0585 -88.3477,-162.0311 0,-106.4272 86.2786,-192.7059 192.7059,-192.7059 z m 0,74.1177 c 65.4943,0 118.5882,53.0942 118.5882,118.5882 0,35.3776 -15.5001,67.1414 -40.0698,88.8689 l -10.944,-31.0368 c 13.3211,-15.5497 21.3668,-35.7511 21.3668,-57.8321 0,-49.1201 -39.8209,-88.9411 -88.9412,-88.9411 -49.1202,0 -88.9412,39.821 -88.9412,88.9411 0,22.081 8.0464,42.2824 21.3668,57.8321 l -10.9585,31.0368 c -24.5696,-21.7275 -40.0553,-53.4913 -40.0554,-88.8689 10e-5,-65.494 53.0942,-118.5882 118.5883,-118.5882 z m 0,174.2489 -33.9754,96.2661 c 10.9374,2.4355 22.305,3.7203 33.9754,3.7203 11.6697,0 23.0394,-1.2856 33.9754,-3.7203 z m -46.3959,131.4285 -19.6875,55.7765 a 252.00003,252.00003 0 0 0 66.0834,9.1344 252.00003,252.00003 0 0 0 66.069,-9.1344 l -19.6875,-55.7765 c -14.8576,3.6718 -30.39,5.6167 -46.3815,5.6167 -15.9922,0 -31.5369,-1.9441 -46.3959,-5.6167 z" /><g
         id="g26275"><path
           d="m 2195.6671,-2592.6794 h -58.1916 l -7.8433,26.3127 h -42.5051 l 61.7337,-177.1049 h 35.4209 l 61.7338,177.1049 h -42.5052 z m -9.8673,-32.3849 -19.2285,-63.7578 -19.2286,63.7578 z"
           id="path26234"
           style="font-weight:800;font-size:253.007px;font-family:Sarabun;-inkscape-font-specification:'Sarabun Ultra-Bold';fill:#ffffff;stroke-width:2.2707;stroke-linejoin:round;stroke-dashoffset:1.4" /><path
           d="m 2260.4364,-2658.9673 q 0,-22.5176 -1.012,-33.9029 h 33.6499 q 1.5181,11.6383 1.5181,22.0116 h 0.506 q 4.3011,-10.8793 15.6864,-17.7105 11.6383,-6.8312 25.8067,-6.8312 21.7586,0 32.8909,14.6744 11.1323,14.6744 11.1323,43.5172 v 70.842 h -35.927 v -71.095 q 0,-15.1804 -4.8071,-22.0116 -4.8071,-6.8312 -15.4334,-6.8312 -12.6504,0 -20.4936,8.6023 -7.5902,8.3492 -7.5902,22.2646 v 69.0709 h -35.927 z"
           id="path26236"
           style="font-weight:800;font-size:253.007px;font-family:Sarabun;-inkscape-font-specification:'Sarabun Ultra-Bold';fill:#ffffff;stroke-width:2.2707;stroke-linejoin:round;stroke-dashoffset:1.4" /><path
           d="m 2462.5888,-2563.8366 q -20.4936,0 -31.8789,-10.6263 -11.1323,-10.6263 -11.1323,-29.8548 v -61.9868 h -23.0237 v -26.5657 h 23.0237 v -32.1319 l 34.9149,-10.1203 h 1.0121 v 42.2522 h 36.939 v 26.5657 h -36.939 v 56.4206 q 0,10.1203 5.0601,14.9274 5.0601,4.5541 15.6864,4.5541 10.1203,0 18.7225,-3.2891 l 1.5181,24.2887 q -12.6504,5.5662 -33.9029,5.5662 z"
           id="path26238"
           style="font-weight:800;font-size:253.007px;font-family:Sarabun;-inkscape-font-specification:'Sarabun Ultra-Bold';fill:#ffffff;stroke-width:2.2707;stroke-linejoin:round;stroke-dashoffset:1.4" /><path
           d="m 2634.633,-2616.4621 h -87.0344 q 2.2771,11.3853 9.3613,16.9515 7.3372,5.5661 19.7345,5.5661 10.8793,0 18.9755,-3.5421 8.0963,-3.5421 16.1925,-12.1443 l 19.2285,18.2165 q -7.3372,12.3974 -23.0236,19.9876 -15.4335,7.5902 -33.65,7.5902 -29.8548,0 -46.8063,-17.2045 -16.9514,-17.4575 -16.9514,-48.0713 0,-30.8669 16.9514,-48.5774 16.9515,-17.7105 46.5533,-17.7105 28.3368,0 44.2763,17.7105 16.1924,17.4575 16.1924,48.3244 z m -35.421,-25.5537 q 0,-11.1323 -6.8312,-17.4575 -6.8312,-6.5782 -18.7225,-6.5782 -10.6263,0 -17.4575,6.8312 -6.8312,6.5782 -9.1082,18.7225 h 52.1194 z"
           id="path26240"
           style="font-weight:800;font-size:253.007px;font-family:Sarabun;-inkscape-font-specification:'Sarabun Ultra-Bold';fill:#ffffff;stroke-width:2.2707;stroke-linejoin:round;stroke-dashoffset:1.4" /><path
           d="m 2653.1023,-2658.9673 q 0,-22.5176 -1.012,-33.9029 h 33.6499 q 1.5181,11.6383 1.5181,22.0116 h 0.506 q 4.3011,-10.8793 15.6864,-17.7105 11.6383,-6.8312 25.8067,-6.8312 21.7586,0 32.8909,14.6744 11.1324,14.6744 11.1324,43.5172 v 70.842 h -35.927 v -71.095 q 0,-15.1804 -4.8072,-22.0116 -4.8071,-6.8312 -15.4334,-6.8312 -12.6504,0 -20.4936,8.6023 -7.5902,8.3492 -7.5902,22.2646 v 69.0709 h -35.927 z"
           id="path26242"
           style="font-weight:800;font-size:253.007px;font-family:Sarabun;-inkscape-font-specification:'Sarabun Ultra-Bold';fill:#ffffff;stroke-width:2.2707;stroke-linejoin:round;stroke-dashoffset:1.4" /><path
           d="m 2796.81,-2658.9673 q 0,-22.5176 -1.012,-33.9029 h 33.6499 q 1.5181,11.6383 1.5181,22.0116 h 0.506 q 4.3011,-10.8793 15.6864,-17.7105 11.6383,-6.8312 25.8067,-6.8312 21.7586,0 32.8909,14.6744 11.1324,14.6744 11.1324,43.5172 v 70.842 h -35.927 v -71.095 q 0,-15.1804 -4.8072,-22.0116 -4.8071,-6.8312 -15.4334,-6.8312 -12.6504,0 -20.4936,8.6023 -7.5902,8.3492 -7.5902,22.2646 v 69.0709 h -35.927 z"
           id="path26244"
           style="font-weight:800;font-size:253.007px;font-family:Sarabun;-inkscape-font-specification:'Sarabun Ultra-Bold';fill:#ffffff;stroke-width:2.2707;stroke-linejoin:round;stroke-dashoffset:1.4" /><path
           d="m 2979.7338,-2563.8366 q -12.3973,0 -22.2646,-5.3132 -9.8673,-5.3131 -15.4334,-14.4214 -5.5662,-9.3612 -5.5662,-20.9996 0,-19.4815 15.6865,-29.8548 15.6864,-10.3733 45.0352,-10.3733 h 17.7105 v -5.0601 q 0,-8.6022 -5.5662,-13.4094 -5.5661,-4.8071 -15.1804,-4.8071 -11.3853,0 -22.0116,3.7951 -10.3733,3.7951 -17.2045,10.3733 l -15.4334,-20.4936 q 10.8793,-9.6143 25.5537,-15.1804 14.9274,-5.8192 30.1078,-5.8192 25.8068,0 40.7342,12.1444 14.9274,11.8913 14.9274,32.6379 v 56.9265 q 0,6.0722 1.012,14.4214 1.012,8.3493 2.2771,12.9034 h -32.1319 q -1.5181,-3.5421 -2.2771,-6.3252 -0.759,-2.7831 -1.265,-7.8432 h -0.506 q -14.1684,16.6985 -38.2041,16.6985 z m 9.6143,-26.5658 q 11.1323,0 18.2165,-5.5661 7.3372,-5.8192 7.3372,-14.6744 v -10.6263 h -18.7225 q -11.8914,0 -18.2165,4.3011 -6.3252,4.3011 -6.3252,12.3973 0,6.8312 4.5541,10.6263 4.5541,3.5421 13.1564,3.5421 z"
           id="path26246"
           style="font-weight:800;font-size:253.007px;font-family:Sarabun;-inkscape-font-specification:'Sarabun Ultra-Bold';fill:#ffffff;stroke-width:2.2707;stroke-linejoin:round;stroke-dashoffset:1.4" /><path
           d="m 3080.9362,-2743.4716 h 61.2277 q 31.8789,0 48.3244,14.6744 16.6984,14.4214 16.6984,42.7582 0,29.8548 -16.9515,45.2882 -16.6984,15.4335 -49.3363,15.4335 h -19.2285 v 58.9506 h -40.7342 z m 62.7458,86.0224 q 11.6383,0 17.7104,-7.0842 6.0722,-7.0842 6.0722,-20.4936 0,-12.9033 -6.5782,-19.4815 -6.3251,-6.5782 -18.9755,-6.5782 h -20.2405 v 53.6375 z"
           id="path26248"
           style="font-weight:800;font-size:253.007px;font-family:Sarabun;-inkscape-font-specification:'Sarabun Ultra-Bold';fill:#ffffff;stroke-width:2.2707;stroke-linejoin:round;stroke-dashoffset:1.4" /><path
           d="m 3282.0764,-2563.8366 q -31.3729,0 -49.0834,-17.4575 -17.4575,-17.4575 -17.4575,-48.3244 0,-30.8668 17.4575,-48.3243 17.7105,-17.4575 49.0834,-17.4575 31.3728,0 48.8303,17.4575 17.7105,17.4575 17.7105,48.3243 0,30.8669 -17.7105,48.3244 -17.4575,17.4575 -48.8303,17.4575 z m 0,-26.5658 q 14.4214,0 22.5176,-10.3733 8.0962,-10.3732 8.0962,-28.8428 0,-18.4695 -8.0962,-28.8427 -8.0962,-10.3733 -22.5176,-10.3733 -14.4214,0 -22.5177,10.3733 -8.0962,10.3732 -8.0962,28.8427 0,18.4696 8.0962,28.8428 8.0963,10.3733 22.5177,10.3733 z"
           id="path26250"
           style="font-weight:800;font-size:253.007px;font-family:Sarabun;-inkscape-font-specification:'Sarabun Ultra-Bold';fill:#ffffff;stroke-width:2.2707;stroke-linejoin:round;stroke-dashoffset:1.4" /><path
           d="m 3415.9167,-2563.8366 q -25.0477,0 -39.2161,-17.9635 -14.1684,-17.9635 -14.1684,-49.8424 0,-19.2285 6.5782,-33.6499 6.5782,-14.4214 18.7225,-22.2647 12.3973,-7.8432 28.8428,-7.8432 11.1323,0 18.9755,3.5421 8.0963,3.2891 14.4214,10.6263 h 0.506 v -72.866 h 35.927 v 153.5753 q 0,27.3247 0.7591,34.1559 h -33.903 q -0.253,-3.7951 -0.253,-15.6864 h -0.506 q -5.8192,8.0962 -15.9394,13.1563 -9.8673,5.0602 -20.7466,5.0602 z m 7.3372,-27.3248 q 12.3973,0 19.7345,-6.8312 7.5902,-7.0842 7.5902,-18.7225 v -27.0717 q 0,-10.3733 -7.8432,-17.7105 -7.8432,-7.3372 -19.4815,-7.3372 -12.3974,0 -18.7225,9.6142 -6.3252,9.6143 -6.3252,28.0838 0,19.4815 6.3252,29.8548 6.3251,10.1203 18.7225,10.1203 z"
           id="path26252"
           style="font-weight:800;font-size:253.007px;font-family:Sarabun;-inkscape-font-specification:'Sarabun Ultra-Bold';fill:#ffffff;stroke-width:2.2707;stroke-linejoin:round;stroke-dashoffset:1.4" /></g></g></g></svg>
