<?xml version="1.0" encoding="UTF-8" standalone="no"?>
<svg
   width="135.46666mm"
   height="135.46667mm"
   viewBox="0 0 511.99997 512.00005"
   fill="none"
   version="1.1"
   id="svg87"
   sodipodi:docname="final-export-set-d1.svg"
   xml:space="preserve"
   inkscape:version="1.2.2 (1:1.2.2+202212051552+b0a8486541)"
   xmlns:inkscape="http://www.inkscape.org/namespaces/inkscape"
   xmlns:sodipodi="http://sodipodi.sourceforge.net/DTD/sodipodi-0.dtd"
   xmlns="http://www.w3.org/2000/svg"
   xmlns:svg="http://www.w3.org/2000/svg"><sodipodi:namedview
     id="namedview89"
     pagecolor="#ffffff"
     bordercolor="#000000"
     borderopacity="0.25"
     inkscape:showpageshadow="false"
     inkscape:pageopacity="0.0"
     inkscape:pagecheckerboard="0"
     inkscape:deskcolor="#d1d1d1"
     showgrid="false"
     borderlayer="false"
     inkscape:zoom="0.10091975"
     inkscape:cx="6837.1159"
     inkscape:cy="2928.0692"
     inkscape:window-width="3108"
     inkscape:window-height="1474"
     inkscape:window-x="439"
     inkscape:window-y="370"
     inkscape:window-maximized="0"
     inkscape:current-layer="svg87"
     inkscape:document-units="mm"
     showguides="false"><sodipodi:guide
       position="795.66151,-2366.7488"
       orientation="0,-1"
       id="guide8509"
       inkscape:locked="false" /><sodipodi:guide
       position="795.66151,-2366.7488"
       orientation="1,0"
       id="guide8511"
       inkscape:locked="false" /><sodipodi:guide
       position="795.66151,-3306.2284"
       orientation="0,-1"
       id="guide8513"
       inkscape:locked="false" /><sodipodi:guide
       position="1406.3222,-3306.2284"
       orientation="1,0"
       id="guide8515"
       inkscape:locked="false" /><sodipodi:guide
       position="1599.3623,-3306.2284"
       orientation="1,0"
       id="guide8517"
       inkscape:locked="false" /><sodipodi:guide
       position="2210.023,-3306.2284"
       orientation="1,0"
       id="guide8519"
       inkscape:locked="false" /><sodipodi:guide
       position="2403.0632,-3306.2284"
       orientation="1,0"
       id="guide8521"
       inkscape:locked="false" /><sodipodi:guide
       position="3013.7238,-3317.1084"
       orientation="1,0"
       id="guide8523"
       inkscape:locked="false" /><sodipodi:guide
       position="3206.7649,-2327.3551"
       orientation="1,0"
       id="guide26110"
       inkscape:locked="false" /><sodipodi:guide
       position="3817.4243,-2336.4029"
       orientation="1,0"
       id="guide26112"
       inkscape:locked="false" /><sodipodi:guide
       position="4010.4655,-2308.1432"
       orientation="1,0"
       id="guide26114"
       inkscape:locked="false" /><sodipodi:guide
       position="4621.1256,-2339.8925"
       orientation="1,0"
       id="guide26116"
       inkscape:locked="false" /><sodipodi:guide
       position="4814.1668,-2336.1093"
       orientation="1,0"
       id="guide26118"
       inkscape:locked="false" /><sodipodi:guide
       position="5424.8266,-2320.9888"
       orientation="1,0"
       id="guide26120"
       inkscape:locked="false" /></sodipodi:namedview><defs
     id="defs85" /><g
     id="g25745"
     inkscape:label="logo-icon-white-out"
     transform="translate(353.60995,1458.7405)"><rect
       style="fill:none;fill-opacity:1;stroke-width:4.08609;stroke-linejoin:round;stroke-dashoffset:1.4"
       id="rect1615-1-4-9-5"
       width="512"
       height="512.00006"
       x="-353.60995"
       y="-1458.7405" /><g
       id="g44931-8-4"
       transform="matrix(7.4117655,0,0,7.4117655,-3685.9467,-6942.0092)"
       style="stroke-width:0.100512"><path
         id="circle43982-2-8"
         style="fill:#ffffff;stroke:none;stroke-width:0.200961;stroke-linejoin:round"
         d="m 484.14062,740.3457 a 34,34 0 0 0 -34,34 34,34 0 0 0 20.36524,31.11133 l 9.46094,-26.80078 c -1.12659,-1.09069 -1.82617,-2.61856 -1.82618,-4.31055 0,-3.31366 2.68634,-6 6,-6 3.31368,0 6.00001,2.68634 6,6 0,1.69209 -0.70133,3.21986 -1.82812,4.31055 l 9.46094,26.80078 a 34,34 0 0 0 20.36718,-31.11133 34,34 0 0 0 -34,-34 z m 0,8 c 14.35926,0 26.00001,11.64077 26,26 0,9.1709 -4.74975,17.23279 -11.92187,21.86133 l -1.375,-3.89844 c 5.62483,-3.98504 9.29688,-10.54485 9.29687,-17.96289 0,-12.15015 -9.84982,-22 -22,-22 -12.15015,0 -21.99999,9.84985 -22,22 10e-6,7.41804 3.67195,13.97795 9.29688,17.96289 l -1.37695,3.89844 c -7.17214,-4.62854 -11.91992,-12.69043 -11.91993,-21.86133 10e-6,-14.35923 11.64077,-26 26,-26 z m 0,10 c 8.83653,0 16,7.1635 16,16 0,4.77316 -2.09129,9.05876 -5.40624,11.99024 l -1.47657,-4.1875 c 1.79729,-2.09798 2.88282,-4.82356 2.88281,-7.80274 10e-6,-6.62732 -5.37265,-12 -12,-12 -6.62732,0 -12,5.37268 -12,12 0,2.97918 1.08563,5.70476 2.88282,7.80274 l -1.47852,4.1875 c -3.31495,-2.93148 -5.40429,-7.21708 -5.4043,-11.99024 10e-6,-8.8365 7.1635,-16 16,-16 z m 0,23.50977 -4.58398,12.98828 c 1.47569,0.3286 3.00941,0.50195 4.58398,0.50195 1.57449,0 3.1085,-0.17345 4.58399,-0.50195 z m -6.25976,17.73242 -2.65625,7.52539 a 34,34 0 0 0 8.91601,1.23242 34,34 0 0 0 8.91407,-1.23242 l -2.65625,-7.52539 c -2.00459,0.4954 -4.10023,0.75781 -6.25782,0.75781 -2.15767,0 -4.25498,-0.26231 -6.25976,-0.75781 z" /></g></g></svg>
