<?xml version="1.0" standalone="no"?>
<!DOCTYPE svg PUBLIC "-//W3C//DTD SVG 20010904//EN"
 "http://www.w3.org/TR/2001/REC-SVG-20010904/DTD/svg10.dtd">
<svg version="1.0" xmlns="http://www.w3.org/2000/svg"
 width="512.000000pt" height="512.000000pt" viewBox="0 0 512.000000 512.000000"
 preserveAspectRatio="xMidYMid meet">
<metadata>
Created by potrace 1.11, written by Peter Selinger 2001-2013
</metadata>
<g transform="translate(0.000000,512.000000) scale(0.100000,-0.100000)"
fill="#000000" stroke="none">
<path d="M0 2560 l0 -2560 734 0 c690 0 734 1 741 18 4 9 130 368 282 797 151
429 313 888 360 1020 46 132 98 279 115 327 l31 86 -37 50 c-102 139 -119 295
-48 446 75 161 269 265 443 237 137 -23 259 -112 318 -233 74 -154 58 -309
-45 -450 l-37 -50 378 -1071 c208 -590 387 -1096 397 -1124 l19 -53 735 0 734
0 0 2560 0 2560 -2560 0 -2560 0 0 -2560z m2716 1840 c654 -58 1226 -452 1508
-1040 222 -461 240 -992 52 -1479 -119 -308 -338 -595 -609 -797 -55 -41 -101
-73 -103 -72 -7 8 -95 261 -92 268 2 4 37 35 79 68 264 212 465 539 538 873
93 429 13 850 -231 1215 -310 465 -887 740 -1438 685 -546 -55 -1010 -370
-1254 -851 -233 -461 -231 -968 6 -1433 103 -201 277 -406 452 -533 l29 -21
-48 -137 -48 -136 -26 16 c-68 44 -200 154 -277 230 -490 491 -665 1226 -447
1884 267 808 1065 1335 1909 1260z m-52 -710 c405 -39 754 -286 926 -652 71
-152 102 -298 101 -478 -1 -303 -105 -566 -308 -781 l-66 -70 -53 146 -53 146
44 62 c306 441 159 1023 -320 1265 -414 208 -925 36 -1135 -383 -70 -139 -92
-230 -93 -380 0 -186 45 -334 149 -487 l53 -77 -50 -138 c-28 -76 -53 -140
-55 -142 -16 -16 -177 182 -239 293 -174 312 -184 716 -25 1042 171 352 514
592 900 633 117 12 113 12 224 1z"/>
<path d="M2394 1562 c-138 -390 -159 -458 -145 -463 79 -31 468 -37 588 -10
l51 12 -43 122 c-24 67 -97 274 -162 459 -65 186 -120 338 -123 338 -3 0 -78
-206 -166 -458z"/>
<path d="M1978 383 l-135 -383 713 0 c434 0 714 4 714 9 0 12 -258 742 -264
749 -3 2 -63 -5 -133 -16 -244 -40 -457 -37 -674 7 l-86 18 -135 -384z"/>
</g>
</svg>
