<?xml version="1.0" encoding="UTF-8" standalone="no"?>
<svg
   xmlns:dc="http://purl.org/dc/elements/1.1/"
   xmlns:cc="http://creativecommons.org/ns#"
   xmlns:rdf="http://www.w3.org/1999/02/22-rdf-syntax-ns#"
   xmlns:svg="http://www.w3.org/2000/svg"
   xmlns="http://www.w3.org/2000/svg"
   id="svg8"
   version="1.1"
   viewBox="0 0 211.66666 158.75"
   height="600"
   width="800">
  <defs
     id="defs2">
    <linearGradient
       id="07c62293-c0d3-4921-8e06-4e39241449cd"
       x1="318.22"
       y1="488.45001"
       x2="630.34998"
       y2="488.45001"
       gradientUnits="userSpaceOnUse">
      <stop
         offset="0"
         stop-color="gray"
         stop-opacity="0.25"
         id="stop833" />
      <stop
         offset="0.54"
         stop-color="gray"
         stop-opacity="0.12"
         id="stop835" />
      <stop
         offset="1"
         stop-color="gray"
         stop-opacity="0.1"
         id="stop837" />
    </linearGradient>
  </defs>
  <metadata
     id="metadata5">
    <rdf:RDF>
      <cc:Work
         rdf:about="">
        <dc:format>image/svg+xml</dc:format>
        <dc:type
           rdf:resource="http://purl.org/dc/dcmitype/StillImage" />
        <dc:title></dc:title>
      </cc:Work>
    </rdf:RDF>
  </metadata>
  <g
     id="layer1">
    <g
       transform="matrix(0.16839082,0,0,0.16839082,23.102934,4.3765356)"
       id="g1141">
      <ellipse
         cx="354.13"
         cy="741.27002"
         rx="176.10001"
         ry="33.360001"
         fill="#2a854e"
         opacity="0.1"
         id="ellipse844" />
      <path
         d="M 681.78,166.43 C 617.06,164.19 555.42,143.29 496.56,120.43 437.7,97.57 379.4,72.25 316.23,60.14 275.6,52.35 229.13,51.24 196.4,73 c -31.51,21 -41.69,57.15 -47.16,90.72 -4.12,25.26 -6.54,51.85 4.74,75.5 7.84,16.42 21.74,30.22 31.36,45.95 33.47,54.72 9.81,122.2 -26.45,175.63 -17,25.06 -36.75,49 -49.88,75.65 -13.13,26.65 -19.2,57.29 -7.71,84.55 11.38,27 38.51,47.24 67.9,61.49 59.69,28.95 130,37.23 198.61,41.93 151.83,10.38 304.46,5.89 456.69,1.38 56.34,-1.66 112.92,-3.35 168.34,-12.06 30.78,-4.84 62.55,-12.52 84.9,-31.06 28.36,-23.53 35.39,-63.37 16.38,-92.87 -31.88,-49.5 -120,-61.79 -142.31,-114.9 -12.26,-29.24 0.33,-61.8 18.16,-88.91 38.24,-58.17 102.33,-109.2 105.7,-175.68 2.32,-45.66 -28.49,-91.39 -76.13,-113 -49.93,-22.65 -119.18,-19.8 -156,17.69 -37.95,38.56 -104.61,53.41 -161.76,51.42 z"
         transform="translate(-95.23,-55.03)"
         fill="#2a854e"
         opacity="0.1"
         id="path846" />
      <path
         style="fill:url(#07c62293-c0d3-4921-8e06-4e39241449cd)"
         d="m 630.35,416.77 -30.63,-20.65 v 0 l 15.45,-23 -80.9,-6.45 -29.07,22.48 -36.39,-20.4 -30.35,3.65 -0.36,-8 a 225.78,225.78 0 0 0 -2.51,-24.9 c 0.13,-2.5 0.22,-5.37 0.21,-8.49 0,-13.15 -1.78,-30.58 -9.6,-42.2 l 1.8,-16.18 -14.6,-17.25 a 110.37,110.37 0 0 1 8,-13.46 c 0.5,-0.72 1,-1.42 1.54,-2.1 18.95,-1.37 33.9,-16.95 33.9,-36 0,-0.88 0,-1.76 -0.1,-2.63 0,-0.35 -0.07,-0.71 -0.11,-1.06 1.85,1 3.72,2 5.59,3 0.35,0.5 0.75,1 1.19,1.59 v 0 l 0.09,0.11 0.56,0.69 0.18,0.21 c 0.2,0.24 0.41,0.47 0.62,0.71 l 0.14,0.16 c 0.53,0.59 1.09,1.19 1.69,1.78 a 1.8,1.8 0 0 1 0.2,0.19 l 0.75,0.7 0.21,0.19 c 0.64,0.57 1.32,1.12 2,1.64 l 0.22,0.16 0.86,0.59 0.28,0.18 c 0.33,0.2 0.67,0.41 1,0.6 l 0.12,0.07 c 0.39,0.21 0.79,0.41 1.19,0.6 l 0.2,0.08 q 0.51,0.22 1,0.42 l 0.31,0.11 c 0.35,0.12 0.69,0.23 1.05,0.33 l 0.22,0.06 c 0.44,0.11 0.88,0.2 1.33,0.27 h 0.05 a 10.88,10.88 0 0 0 1.28,0.13 h 0.29 a 11,11 0 0 0 1.15,0 h 0.25 a 11.85,11.85 0 0 0 1.43,-0.17 15.78,15.78 0 0 0 6.3,-2.26 5.5,5.5 0 0 0 1.28,-1.19 c 2,-2.62 -0.2,-5.49 -0.2,-5.49 v 0 c -0.78,-1.86 -5.84,-3.17 -5.84,-3.17 0,0 -16,-6.68 -16,-12 0,-5.32 -4,-32.92 -45.29,-39.23 0,0 -26.86,-1.51 -34.41,12.87 l -0.16,1.68 c -2.22,1.39 -4.06,4.18 -6.25,5 a 10.21,10.21 0 0 0 -2.71,1 v -0.19 0 a 2.58,2.58 0 0 0 -0.61,0.79 8,8 0 0 0 -0.83,3 11.3,11.3 0 0 1 -1.31,3.63 8.07,8.07 0 0 1 -0.6,0.92 v 0 l -0.17,0.27 a 7.3,7.3 0 0 0 3.4,-0.55 16.93,16.93 0 0 1 -1,4 3.32,3.32 0 0 0 3.08,-1.84 v -0.08 l 0.13,-0.18 a 8.44,8.44 0 0 0 0.62,-1.45 l -0.11,0.12 c 0.2,-0.65 0.38,-1.31 0.6,-1.95 a 3.06,3.06 0 0 1 0.49,-1 2.42,2.42 0 0 1 2.07,-0.69 l -0.41,8.67 h 0.18 a 11.83,11.83 0 0 1 -0.88,1.82 c -1.42,2.3 -4,3.87 -4.95,6.39 a 9.4,9.4 0 0 0 -0.46,3.78 c 0,0.75 0.09,1.51 0.15,2.26 v -0.06 c 0.14,2 0.18,3.9 -0.9,5.51 -0.74,1.1 -1.93,1.93 -2.34,3.18 a 3.1,3.1 0 0 0 -0.15,1.08 12.13,12.13 0 0 0 0.68,3.21 0.14,0.14 0 0 0 0,-0.06 4.88,4.88 0 0 1 0.17,2.36 c -0.45,2 -2.88,3.67 -2.76,5.58 a 2.15,2.15 0 0 0 0.11,0.74 4.05,4.05 0 0 0 2.26,2 8.8,8.8 0 0 0 5.08,1.12 6.68,6.68 0 0 0 1.9,-0.65 c -0.7,1.61 -1.42,3.2 -2.15,4.71 -0.11,0.24 -0.23,0.48 -0.35,0.72 0,0 -6.18,-4.13 -9.69,4.29 a 18.68,18.68 0 0 0 -2.17,5.64 13.42,13.42 0 0 1 -0.74,2.32 14.93,14.93 0 0 1 -6.68,6 c -7.16,3.28 -36.08,39.35 -36.59,48.69 a 54.49,54.49 0 0 1 -1.84,10.78 64.15,64.15 0 0 0 -1.72,25.49 48.77,48.77 0 0 0 1.77,8.13 c 3.07,9.33 5.12,26.74 5.12,26.74 l 3.32,30.22 a 86,86 0 0 0 0.54,12.49 c -3.39,3.87 -17,20 -11.8,24.39 4,3.46 11,2.89 14.93,2.18 -3.31,8.19 -8.52,22.43 -9.21,32.21 -1,14.47 1.71,33.64 6,41 4.29,7.36 18.59,26.24 18.59,26.24 0,0 -0.67,25.9 4.44,35.31 5.11,9.41 7.17,28.93 7.17,28.93 0,0 4.77,16.48 2.38,22.54 -2.39,6.06 4.43,11.1 -2.73,15.13 -7.16,4.03 -16.32,94.86 -16.32,94.86 0,0 -3.69,59.53 0,62.56 a 3.75,3.75 0 0 0 0.63,0.37 v 20 c 0,0 -2.56,4.2 7.85,5.05 7.13,0.57 27.34,1.86 39.33,2.61 l 9.29,0.58 c 0,0 22,4.38 31.72,0 9.72,-4.38 26.95,-4.28 24.39,-15.85 a 32.92,32.92 0 0 0 -1.36,-4.63 c -2.81,-7.18 -7.58,-8 -16.37,-10 -0.51,-0.11 -1,-0.21 -1.45,-0.29 -9.26,-1.61 -12.3,2.7 -17.49,-2.91 -4.51,-4.85 -18.87,-10.28 -23.76,-12 0.12,-0.36 0.27,-0.71 0.39,-1.08 a 7.32,7.32 0 0 1 -3.71,-1.81 l 13.25,0.84 7.89,0.49 c 0,0 18.7,3.73 27,0 8.3,-3.73 22.9,-3.63 20.72,-13.46 a 28.21,28.21 0 0 0 -1.15,-3.94 c -2.39,-6.1 -6.45,-6.77 -13.92,-8.46 -0.43,-0.09 -0.83,-0.18 -1.23,-0.25 -7.87,-1.37 -10.45,2.29 -14.86,-2.47 -3.78,-4.06 -15.71,-8.61 -20,-10.16 0,-2.22 -3,-5.38 -4.89,-8.55 -2.22,-3.7 1.88,-16.65 1.88,-16.65 L 411,658.74 a 10.38,10.38 0 0 1 2.8,-0.8 c 0,0 10.58,-10.1 8.19,-20.86 a 69.13,69.13 0 0 1 -0.76,-9.83 c 3.48,-3.23 8.27,-8 9.63,-10.94 2.22,-4.79 0,-28 0,-28 v -88.75 l 17.7,1.79 16.06,1.65 4.89,0.5 16.06,1.62 36.91,3.73 33.26,-6.3 14.39,-2.72 29.59,-5.6 v -72.4 z m -243.61,-239.91 -2.06,-0.22 c 0.68,0.03 1.4,0.16 2.06,0.22 z"
         transform="translate(-95.23,-55.03)"
         fill="url(#07c62293-c0d3-4921-8e06-4e39241449cd)"
         id="path848" />
      <path
         d="m 558.56,463.78 c -10,14.31 -45.95,6.73 -45.95,6.73 l -27.86,-26.07 -3.75,-3.53 6.29,-13.36 c 0,0 2,0.55 5.43,1.53 18.01,5.23 74.28,22.67 65.84,34.7 z"
         transform="translate(-95.23,-55.03)"
         fill="#efb7b9"
         id="path850" />
      <path
         d="m 492.7,429.08 c -1.23,4.28 -4.6,10.69 -7.95,15.36 l -3.75,-3.53 6.29,-13.36 c 0,0 2.02,0.55 5.41,1.53 z"
         transform="translate(-95.23,-55.03)"
         opacity="0.1"
         id="path852" />
      <path
         d="m 397.15,278.42 c 0,0 -25.68,11.39 -24.42,39.36 a 461.14,461.14 0 0 0 5.88,53.76 c 0,0 -5.25,42.09 16.61,52.94 21.86,10.85 42.09,19.77 42.09,19.77 0,0 34.2,3.68 38.45,5.2 4.25,1.52 17.53,-21.72 15.08,-25.34 C 488.39,420.49 457,412.9 453,406.86 c -4,-6.04 -13.25,-9.77 -13.25,-9.77 0,0 -9.55,-5.78 -10.2,-11 -0.65,-5.22 1.87,-9.11 2.51,-11.4 0.64,-2.29 2.26,-24.4 2.26,-24.4 0,0 10.78,-78.7 -37.17,-71.87 z"
         transform="translate(-95.23,-55.03)"
         fill="#dce6f2"
         id="path854" />
      <path
         d="m 414.1,370.39 c 0,0 -35.23,5.9 -31.82,18.23 0,0 12.79,-13.31 31.82,-18.23 z"
         transform="translate(-95.23,-55.03)"
         opacity="0.1"
         id="path856" />
      <path
         d="m 414.37,375.38 c 0,0 -19.37,15.81 -15.58,16.62 3.79,0.81 15.58,-16.62 15.58,-16.62 z"
         transform="translate(-95.23,-55.03)"
         opacity="0.1"
         id="path858" />
      <path
         d="m 423.68,380.89 c 0,0 -5.19,10.63 -2,9.91 3.19,-0.72 2,-9.91 2,-9.91 z"
         transform="translate(-95.23,-55.03)"
         opacity="0.1"
         id="path860" />
      <path
         d="m 494,430.21 -2.14,-0.61 c 0.61,-2 0.78,-3.62 0.28,-4.37 -2.45,-3.62 -33.82,-11.2 -37.81,-17.25 -3.99,-6.05 -13.25,-9.77 -13.25,-9.77 0,0 -9.55,-5.78 -10.2,-11 -0.65,-5.22 1.87,-9.11 2.51,-11.4 0.64,-2.29 2.26,-24.41 2.26,-24.41 0,0 10.75,-78.69 -37.2,-71.86 0,0 -25.68,11.4 -24.43,39.37 a 459.85,459.85 0 0 0 5.89,53.76 c 0,0 -5.25,42.09 16.61,52.94 21.86,10.85 42.09,19.77 42.09,19.77 0,0 34.19,3.67 38.45,5.2 1.61,0.58 4.52,-2.41 7.37,-6.52 l 1.62,1.51 27.86,26.06 c 0,0 35.95,7.59 45.95,-6.72 8.45,-12.04 -47.81,-29.48 -65.86,-34.7 z"
         transform="translate(-95.23,-55.03)"
         opacity="0.1"
         id="path862" />
      <path
         d="m 382.37,173.44 a 8.5,8.5 0 0 0 -2.77,1.07 c -1,0.83 -1,2.25 -1.25,3.49 a 11.48,11.48 0 0 1 -2,4.78 7.19,7.19 0 0 0 3.33,-0.55 17.14,17.14 0 0 1 -1,4 3.24,3.24 0 0 0 3,-1.83 19.26,19.26 0 0 0 1.25,-3.51 2.89,2.89 0 0 1 0.48,-1 c 0.92,-1.09 2.63,-0.6 4.05,-0.46 a 6.65,6.65 0 0 0 6.08,-2.92 c 1.51,-2.29 1.6,-8.15 -2,-8.77 -3.76,-0.62 -6.1,4.56 -9.17,5.7 z"
         transform="translate(-95.23,-55.03)"
         fill="#965d7b"
         id="path864" />
      <g
         opacity="0.1"
         id="g872">
        <path
           d="m 379.5,175.74 c 0.09,-0.49 0.15,-1 0.26,-1.49 v 0 c -0.95,0.83 -1,2.24 -1.25,3.49 a 11,11 0 0 1 -0.59,2.11 11.46,11.46 0 0 0 1.58,-4.11 z"
           transform="translate(-95.23,-55.03)"
           id="path866" />
        <path
           d="m 379.82,184 a 16.63,16.63 0 0 0 1,-4 7.16,7.16 0 0 1 -3.17,0.55 11.57,11.57 0 0 1 -1.15,2 7.12,7.12 0 0 0 3.32,-0.54 16.63,16.63 0 0 1 -1,4 3.25,3.25 0 0 0 3,-1.83 7.46,7.46 0 0 0 0.6,-1.43 3,3 0 0 1 -2.6,1.25 z"
           transform="translate(-95.23,-55.03)"
           id="path868" />
        <path
           d="m 388.6,177.2 c -1.42,-0.14 -3.14,-0.63 -4.06,0.46 a 3.09,3.09 0 0 0 -0.48,1 c -0.09,0.26 -0.17,0.53 -0.24,0.8 0.95,-0.75 2.49,-0.35 3.78,-0.22 a 6.68,6.68 0 0 0 6.08,-2.92 5.54,5.54 0 0 0 0.67,-1.57 6.66,6.66 0 0 1 -5.75,2.45 z"
           transform="translate(-95.23,-55.03)"
           id="path870" />
      </g>
      <polygon
         points="312.07,209 317.24,201 332.49,219.34 330.5,237.85 "
         fill="#dce6f2"
         id="polygon874" />
      <polygon
         points="313.86,211.81 312.07,209 312.59,208.19 317.23,201 318.26,202.24 332.48,219.34 330.61,236.75 330.49,237.85 "
         opacity="0.1"
         id="polygon876" />
      <path
         d="m 435.63,231.2 c -5.16,1.48 -10.09,6.56 -14.38,12.73 a 108.65,108.65 0 0 0 -7.76,13.34 c -1.41,2.82 -2.65,5.53 -3.68,7.89 l -0.72,1.68 c -1.74,4.11 -2.71,6.86 -2.71,6.86 0,0 -39.5,-29.7 -33.25,-31.7 2.1,-0.67 4.86,-5.17 7.59,-10.84 l 0.34,-0.72 c 1.73,-3.64 3.43,-7.7 4.94,-11.52 3.09,-7.85 5.38,-14.67 5.38,-14.67 0,0 60,22.45 44.25,26.95 z"
         transform="translate(-95.23,-55.03)"
         fill="#efb7b9"
         id="path878" />
      <path
         d="m 459.26,202.58 c 0,0 9.12,16.5 21.37,14.25 12.25,-2.25 7.21,-8.86 7.21,-8.86 z"
         transform="translate(-95.23,-55.03)"
         fill="#444053"
         id="path880" />
      <path
         d="m 441.59,773.73 c -8.08,3.69 -26.35,0 -26.35,0 l -7.7,-0.48 c -10,-0.64 -26.74,-1.72 -32.66,-2.2 -8.64,-0.71 -6.52,-4.25 -6.52,-4.25 v -21.39 l 41.92,-10.62 c 0,0 16.57,5.67 21.11,10.62 4.31,4.72 6.83,1.09 14.52,2.45 0.38,0.07 0.78,0.15 1.2,0.25 7.3,1.67 11.26,2.33 13.6,8.38 a 28.1,28.1 0 0 1 1.13,3.9 c 2.16,9.74 -12.18,9.67 -20.25,13.34 z"
         transform="translate(-95.23,-55.03)"
         fill="#a36468"
         id="path882" />
      <path
         d="m 460.71,756.49 a 31.34,31.34 0 0 1 -4.72,2.42 c -5.5,2.51 -10.73,5.57 -16.29,7.94 -5.56,2.37 -11.55,4.06 -17.57,3.61 -3.15,-0.23 -6.37,-1 -9.38,-0.1 a 21.66,21.66 0 0 0 -5.21,2.89 c -10,-0.64 -26.74,-1.72 -32.66,-2.2 -8.64,-0.71 -6.52,-4.25 -6.52,-4.25 v -2.5 c 0.31,0 0.66,-0.09 1.06,-0.12 a 18.88,18.88 0 0 1 6.1,0.91 c 4.34,1.18 8.66,2.34 13,3.5 a 10.27,10.27 0 0 1 5,-6.38 15.94,15.94 0 0 1 8.06,-1.85 c 6.73,0.09 13.1,3.28 19.82,3.6 a 10.92,10.92 0 0 0 5.49,-0.92 c 0.92,-0.46 1.73,-1.13 2.63,-1.64 a 19.2,19.2 0 0 1 4.53,-1.53 99.76,99.76 0 0 0 12.95,-4.18 c 1.2,-0.47 2.6,-1.32 2.44,-2.6 -0.21,-1.7 -2.88,-1.9 -3.58,-3.46 a 2,2 0 0 1 0.08,-1.77 c 0.38,0.07 0.78,0.15 1.2,0.25 7.27,1.67 11.23,2.33 13.57,8.38 z"
         transform="translate(-95.23,-55.03)"
         opacity="0.1"
         id="path884" />
      <path
         d="m 433.05,820.53 c -9.5,4.34 -31,0 -31,0 L 393,820 c -11.72,-0.75 -31.46,-2 -38.43,-2.59 -10.17,-0.84 -7.67,-5 -7.67,-5 V 787.2 l 49.33,-12.5 c 0,0 19.5,6.67 24.84,12.5 5.07,5.55 8,1.28 17.09,2.88 0.45,0.08 0.92,0.18 1.41,0.29 8.59,2 13.25,2.75 16,9.87 a 32.1,32.1 0 0 1 1.33,4.59 c 2.48,11.46 -14.35,11.37 -23.85,15.7 z"
         transform="translate(-95.23,-55.03)"
         fill="#a36468"
         id="path886" />
      <path
         d="m 455.55,800.24 a 37.23,37.23 0 0 1 -5.55,2.85 c -6.47,2.95 -12.63,6.55 -19.17,9.34 -6.54,2.79 -13.59,4.77 -20.68,4.25 -3.7,-0.27 -7.49,-1.2 -11,-0.12 A 25.5,25.5 0 0 0 393,820 c -11.72,-0.75 -31.46,-2 -38.43,-2.59 -10.17,-0.84 -7.67,-5 -7.67,-5 v -2.94 a 12.5,12.5 0 0 1 1.25,-0.14 21.94,21.94 0 0 1 7.18,1.07 l 15.29,4.12 a 12.1,12.1 0 0 1 5.93,-7.51 18.66,18.66 0 0 1 9.49,-2.18 c 7.92,0.11 15.41,3.86 23.32,4.24 A 12.91,12.91 0 0 0 415.8,808 c 1.09,-0.55 2,-1.34 3.1,-1.93 a 21.75,21.75 0 0 1 5.33,-1.8 119.69,119.69 0 0 0 15.16,-4.92 c 1.41,-0.56 3.06,-1.56 2.87,-3.06 -0.25,-2 -3.39,-2.24 -4.22,-4.08 a 2.41,2.41 0 0 1 0.1,-2.08 c 0.45,0.08 0.92,0.18 1.41,0.29 8.59,1.92 13.25,2.7 16,9.82 z"
         transform="translate(-95.23,-55.03)"
         opacity="0.1"
         id="path888" />
      <path
         d="m 411.55,647.54 -2.67,62.83 c 0,0 -4,12.83 -1.83,16.5 2.17,3.67 5.83,7.33 4.5,9.5 -1.33,2.17 -17.33,25.63 -22.5,16.63 -5.17,-9 -10.27,-48 -10.27,-48 l 4.77,-48.17 z"
         transform="translate(-95.23,-55.03)"
         fill="#444053"
         id="path890" />
      <path
         d="m 423.13,491 7.42,9.92 v 86.28 c 0,0 2.17,23 0,27.75 -2.17,4.75 -13.17,14.25 -13.17,14.25 l -9.25,-47.5 2,-50.25 z"
         transform="translate(-95.23,-55.03)"
         fill="#444053"
         id="path892" />
      <path
         d="m 411.55,647.54 -2.67,62.83 c 0,0 -4,12.83 -1.83,16.5 2.17,3.67 5.83,7.33 4.5,9.5 -1.33,2.17 -17.33,25.63 -22.5,16.63 -5.17,-9 -10.27,-48 -10.27,-48 l 4.77,-48.17 z"
         transform="translate(-95.23,-55.03)"
         opacity="0.1"
         id="path894" />
      <path
         d="m 423.13,491 7.42,9.92 v 86.28 c 0,0 2.17,23 0,27.75 -2.17,4.75 -13.17,14.25 -13.17,14.25 l -9.25,-47.5 2,-50.25 z"
         transform="translate(-95.23,-55.03)"
         opacity="0.1"
         id="path896" />
      <path
         d="m 430.55,454.2 v 46.67 l -8.33,36.33 c 0,0 -2.67,87.67 -0.34,98.33 2.33,10.66 -8,20.67 -8,20.67 0,0 -6,0.67 -6,5.33 0,4.66 -10,18 -10,18 l 0.33,26 c 0,0 4.34,48.67 -2.33,58 -6.67,9.33 2.33,10.67 2.33,10.67 -8.33,27.33 -48.33,21 -51.94,18 -3.61,-3 0,-62 0,-62 0,0 8.94,-90 15.94,-94 7,-4 0.34,-9 2.67,-15 2.33,-6 -2.33,-22.33 -2.33,-22.33 0,0 -2,-19.34 -7,-28.67 -5,-9.33 -4.34,-35 -4.34,-35 0,0 -14,-18.67 -18.16,-26 -4.16,-7.33 -6.84,-26.33 -5.84,-40.67 0.68,-9.69 5.77,-23.8 9,-31.92 1.55,-3.89 2.67,-6.41 2.67,-6.41 l 0.95,0.25 54.62,14.3 z"
         transform="translate(-95.23,-55.03)"
         fill="#444053"
         id="path898" />
      <path
         d="m 435.63,231.2 c -5.16,1.48 -10.09,6.56 -14.38,12.73 h -1.12 a 35.72,35.72 0 0 1 -31,-17.93 35.18,35.18 0 0 1 -3.14,-7.15 c 3.09,-7.85 5.38,-14.67 5.38,-14.67 0,0 60.01,22.52 44.26,27.02 z"
         transform="translate(-95.23,-55.03)"
         opacity="0.1"
         id="path900" />
      <path
         d="M 455.88,206.2 A 35.75,35.75 0 1 1 389,188.68 a 34.93,34.93 0 0 1 3.78,-5.46 36.18,36.18 0 0 1 8.22,-7.22 35.75,35.75 0 0 1 54.83,27.58 c 0.02,0.88 0.05,1.75 0.05,2.62 z"
         transform="translate(-95.23,-55.03)"
         fill="#efb7b9"
         id="path902" />
      <path
         d="m 425.84,291.78 -0.12,1.1 -16.63,-26 c -1.74,4.11 -2.71,6.86 -2.71,6.86 0,0 -39.5,-29.74 -33.25,-31.74 2.1,-0.67 4.86,-5.17 7.59,-10.84 l 0.34,-0.72 c 2.9,8.64 19.75,25.91 26.76,32.83 0.81,0.8 1.48,1.46 2,1.94 l 1.07,1 0.56,0.56 c 2.55,2.63 13.31,14.23 14.39,25.01 z"
         transform="translate(-95.23,-55.03)"
         opacity="0.1"
         id="path904" />
      <path
         d="m 438.27,380 -1.82,58.57 -0.32,10.43 c 0,0 -21.56,-2 -41.68,-4.2 -16.2,-1.77 -31.47,-3.68 -33.82,-4.8 -3,-1.41 -9.43,-2.5 -14.5,-3.19 -3.92,-0.53 -7,-0.81 -7,-0.81 0,0 -1.15,0.34 -2.92,0.66 -3.86,0.7 -10.64,1.27 -14.59,-2.16 -5.05,-4.39 8.22,-20.34 11.53,-24.17 l 0.73,-0.83 -1.25,-11.55 -3.25,-29.95 c 0,0 -2,-17.25 -5,-26.5 a 48.88,48.88 0 0 1 -1.73,-8.05 64.48,64.48 0 0 1 1.68,-25.26 55.08,55.08 0 0 0 1.8,-10.69 c 0.5,-9.25 28.75,-45 35.75,-48.25 a 14.84,14.84 0 0 0 7.16,-7.14 13.64,13.64 0 0 0 1.09,-3.11 c 3,-13 10.59,-7.84 10.59,-7.84 1.83,10.17 30.16,37.09 30.16,37.09 l 0.56,0.56 c 2.81,2.88 15.33,16.4 14.44,27.94 a 33.87,33.87 0 0 0 1.89,12.64 213.75,213.75 0 0 1 9.85,56 z"
         transform="translate(-95.23,-55.03)"
         fill="#dce6f2"
         id="path906" />
      <path
         d="m 398.13,310.45 c 0,0 -7,17 -12.25,19.75 -5.25,2.75 14.75,5.8 12.25,-19.75 z"
         transform="translate(-95.23,-55.03)"
         opacity="0.1"
         id="path908" />
      <path
         d="m 403.38,342.2 c 0,0 -16,2 -16,5 0,3 16,-5 16,-5 z"
         transform="translate(-95.23,-55.03)"
         opacity="0.1"
         id="path910" />
      <path
         d="m 420.13,361.7 c 0,0 -23.25,49.5 -29.75,51 -6.5,1.5 29.75,-51 29.75,-51 z"
         transform="translate(-95.23,-55.03)"
         opacity="0.1"
         id="path912" />
      <path
         d="M 410.44,270.76 391.21,279.12 368,244.06 a 13.64,13.64 0 0 0 1.09,-3.11 c 3,-13 10.59,-7.84 10.59,-7.84 1.83,10.17 30.16,37.09 30.16,37.09 z"
         transform="translate(-95.23,-55.03)"
         opacity="0.1"
         id="path914" />
      <path
         d="M 411.44,268.76 392.21,277.12 369,242.06 a 13.64,13.64 0 0 0 1.09,-3.11 c 3,-13 10.59,-7.84 10.59,-7.84 1.83,10.17 30.16,37.09 30.16,37.09 z"
         transform="translate(-95.23,-55.03)"
         fill="#dce6f2"
         id="path916" />
      <path
         d="m 436.13,449 c 0,0 -21.56,-2 -41.68,-4.2 l 36.1,9.45 v 11 c -1.58,1.43 -2.95,2.17 -3.84,1.79 -4.16,-1.75 -38.11,-7.25 -38.11,-7.25 0,0 -19.72,-10 -41,-22 a 16.43,16.43 0 0 1 -1.5,-0.94 23.64,23.64 0 0 1 -6.3,-6.31 c -3.93,-5.69 -5.85,-13 -6.68,-20.17 a 87.22,87.22 0 0 1 -0.52,-12.38 101.51,101.51 0 0 1 1.28,-13.99 460.08,460.08 0 0 1 -3,-54 c 0.25,-28 26.5,-38 26.5,-38 48.25,-4.25 33.29,73.75 33.29,73.75 0,0 -2.79,22 -3.55,24.25 -0.76,2.25 -3.49,6 -3.12,11.25 0.37,5.25 9.59,11.53 9.59,11.53 0,0 9,4.22 12.71,10.47 2.7,4.61 20.24,10.86 30.15,15.32 z"
         transform="translate(-95.23,-55.03)"
         opacity="0.1"
         id="path918" />
      <path
         d="m 452.29,184 a 11.32,11.32 0 0 1 -1,4.78 29.55,29.55 0 0 1 -1.78,3.56 16.4,16.4 0 0 1 -4.38,5.44 c -2.31,1.65 -5.23,2.11 -8,2.78 -2.77,0.67 -5.65,1.74 -7.23,4.1 a 14.34,14.34 0 0 0 -1.69,4.9 10.54,10.54 0 0 1 -2,4.74 3.93,3.93 0 0 1 -4.68,1.12 4.73,4.73 0 0 1 -1.81,-2.33 c -1.14,-2.57 -1.43,-5.42 -1.89,-8.19 -0.46,-2.77 -1.11,-5.62 -2.81,-7.85 -1.7,-2.23 -4.71,-3.7 -7.38,-2.83 a 7.11,7.11 0 0 0 -4,3.88 22.24,22.24 0 0 0 -1.51,5.52 q -1.86,10.18 -4.39,20.24 a 1.86,1.86 0 0 1 -0.33,0.76 1.44,1.44 0 0 1 -1,0.42 c -2.24,0.3 -4.39,-1.27 -6.65,-1.1 a 3.82,3.82 0 0 0 -0.69,0.11 35.73,35.73 0 0 1 3.61,-40.8 l 0.18,-0.05 a 10.78,10.78 0 0 0 4,-2.52 42.22,42.22 0 0 0 4,-4.63 l 0.8,-1 a 45.61,45.61 0 0 1 7.8,-7.41 8,8 0 0 1 2.66,-1.44 7.88,7.88 0 0 1 2.52,-0.08 63.57,63.57 0 0 0 10.41,0.39 66.79,66.79 0 0 1 7.31,-0.74 c 6.33,0.18 11.73,4.65 15.73,9.55 2.15,2.51 4.07,5.4 4.2,8.68 z"
         transform="translate(-95.23,-55.03)"
         opacity="0.1"
         id="path920" />
      <path
         d="m 384.33,189.63 c -1.39,2.28 -3.9,3.83 -4.84,6.33 -1.38,3.63 0.95,8.15 -1.19,11.39 -0.71,1.09 -1.88,1.9 -2.28,3.15 -0.68,2.11 1.18,4.36 0.7,6.53 -0.48,2.17 -3.34,4 -2.58,6.12 a 4,4 0 0 0 2.2,2 8.6,8.6 0 0 0 5,1.11 c 2.73,-0.45 4.76,-3.13 7.53,-3.33 2.25,-0.16 4.4,1.4 6.64,1.11 a 1.5,1.5 0 0 0 1,-0.43 1.73,1.73 0 0 0 0.33,-0.76 q 2.52,-10.05 4.4,-20.24 a 21.8,21.8 0 0 1 1.5,-5.52 7.17,7.17 0 0 1 4,-3.88 c 2.67,-0.86 5.67,0.6 7.38,2.83 1.71,2.23 2.36,5.08 2.82,7.85 0.46,2.77 0.75,5.62 1.88,8.19 a 4.78,4.78 0 0 0 1.82,2.34 c 1.5,0.87 3.52,0.18 4.67,-1.12 a 10.43,10.43 0 0 0 2,-4.75 14.28,14.28 0 0 1 1.69,-4.89 c 1.58,-2.36 4.47,-3.43 7.23,-4.1 2.76,-0.67 5.67,-1.14 8,-2.79 a 16.46,16.46 0 0 0 4.38,-5.43 c 1.48,-2.58 2.86,-5.38 2.74,-8.35 -0.13,-3.24 -2.05,-6.13 -4.1,-8.65 -4,-4.9 -9.41,-9.37 -15.74,-9.54 a 62.2,62.2 0 0 0 -7.31,0.74 62.57,62.57 0 0 1 -10.41,-0.4 8.18,8.18 0 0 0 -2.52,0.09 7.54,7.54 0 0 0 -2.65,1.44 45.63,45.63 0 0 0 -7.81,7.4 57.31,57.31 0 0 1 -4.82,5.6 10.85,10.85 0 0 1 -4,2.53 c -1,0.28 -2,0.08 -2.95,0.39 -2.95,0.93 -3.34,4.78 -4.71,7.04 z"
         transform="translate(-95.23,-55.03)"
         fill="#965d7b"
         id="path922" />
      <path
         d="m 480.63,216.82 c -8,1.47 -14.63,-5 -18.3,-9.72 a 39.22,39.22 0 0 1 -3.07,-4.52 l 27.46,5.18 1.11,0.21 c 0,0 5.05,6.61 -7.2,8.85 z"
         transform="translate(-95.23,-55.03)"
         opacity="0.1"
         id="path924" />
      <g
         opacity="0.1"
         id="g932">
        <path
           d="m 376.72,214.17 a 8.33,8.33 0 0 0 -0.58,-3.84 c 0,0.1 -0.09,0.2 -0.12,0.3 -0.43,1.34 0.15,2.73 0.52,4.12 a 3,3 0 0 0 0.18,-0.58 z"
           transform="translate(-95.23,-55.03)"
           id="path926" />
        <path
           d="m 379.1,197.8 a 22.22,22.22 0 0 0 0.08,4.15 22.28,22.28 0 0 0 -0.08,-4.15 z"
           transform="translate(-95.23,-55.03)"
           id="path928" />
        <path
           d="m 448.55,188.45 a 16.4,16.4 0 0 1 -4.38,5.44 c -2.31,1.65 -5.22,2.11 -8,2.78 -2.78,0.67 -5.65,1.74 -7.23,4.1 a 14.41,14.41 0 0 0 -1.69,4.9 10.47,10.47 0 0 1 -2,4.75 c -1.15,1.3 -3.17,2 -4.67,1.12 a 4.78,4.78 0 0 1 -1.82,-2.34 c -1.13,-2.57 -1.43,-5.41 -1.88,-8.19 -0.45,-2.78 -1.12,-5.62 -2.82,-7.85 -1.7,-2.23 -4.71,-3.7 -7.38,-2.83 a 7.14,7.14 0 0 0 -4,3.88 21.8,21.8 0 0 0 -1.5,5.52 q -1.87,10.19 -4.4,20.24 a 1.73,1.73 0 0 1 -0.33,0.76 1.5,1.5 0 0 1 -1,0.43 c -2.24,0.29 -4.39,-1.27 -6.64,-1.11 -2.77,0.2 -4.8,2.88 -7.53,3.32 a 8.45,8.45 0 0 1 -5,-1.11 5.35,5.35 0 0 1 -1.83,-1.3 2.7,2.7 0 0 0 -0.37,2.33 3.9,3.9 0 0 0 2.2,2 8.45,8.45 0 0 0 5,1.11 c 2.73,-0.44 4.76,-3.12 7.53,-3.32 2.25,-0.16 4.4,1.4 6.64,1.11 a 1.5,1.5 0 0 0 1,-0.43 1.73,1.73 0 0 0 0.33,-0.76 q 2.52,-10 4.4,-20.24 a 21.8,21.8 0 0 1 1.5,-5.52 7.14,7.14 0 0 1 4,-3.88 c 2.67,-0.87 5.67,0.6 7.38,2.83 1.71,2.23 2.36,5.08 2.82,7.85 0.46,2.77 0.75,5.62 1.88,8.19 a 4.78,4.78 0 0 0 1.82,2.34 c 1.5,0.87 3.52,0.18 4.67,-1.12 a 10.47,10.47 0 0 0 2,-4.75 14.41,14.41 0 0 1 1.69,-4.9 c 1.58,-2.36 4.47,-3.42 7.23,-4.1 2.76,-0.68 5.67,-1.13 8,-2.78 a 16.4,16.4 0 0 0 4.38,-5.44 c 1.48,-2.57 2.86,-5.37 2.74,-8.34 a 10.74,10.74 0 0 0 -0.12,-1.14 19.65,19.65 0 0 1 -2.62,6.45 z"
           transform="translate(-95.23,-55.03)"
           id="path930" />
      </g>
      <path
         d="m 451.33,188.75 a 35.33,35.33 0 0 1 4.45,14.85 c -8.91,-5 -17.29,-10.49 -21.52,-12.4 -7.37,-3.33 -34.93,-2.83 -45.29,-2.52 a 34.93,34.93 0 0 1 3.78,-5.46 36.18,36.18 0 0 1 8.25,-7.22 35.77,35.77 0 0 1 50.38,12.73 z"
         transform="translate(-95.23,-55.03)"
         opacity="0.1"
         id="path934" />
      <path
         d="m 483.13,212.58 c -4.81,1.48 -12.66,-1.38 -20.8,-5.48 a 39.22,39.22 0 0 1 -3.07,-4.52 l 27.46,5.18 c 1.82,1.24 2.28,3.01 -3.59,4.82 z"
         transform="translate(-95.23,-55.03)"
         opacity="0.1"
         id="path936" />
      <path
         d="m 422.26,154.08 c 0,0 -26.25,-1.5 -33.63,12.75 l -1.19,12.63 -2,-0.22 -0.4,8.59 c 0,0 40.12,-1.75 49.25,2.37 9.13,4.12 37.5,24.88 48.87,21.38 11.37,-3.5 -1,-6.75 -1,-6.75 0,0 -15.65,-6.63 -15.65,-11.83 0,-5.2 -3.88,-32.67 -44.25,-38.92 z"
         transform="translate(-95.23,-55.03)"
         fill="#444053"
         id="path938" />
      <path
         d="m 371.63,622.28 c 0,0 16.75,16.25 24,15 0,0 -20.5,-1.75 -24,-15 z"
         transform="translate(-95.23,-55.03)"
         opacity="0.1"
         id="path940" />
      <path
         d="m 368.13,629.81 c 0,0 1.5,8.36 5.5,7.54 4,-0.82 -5.5,-7.54 -5.5,-7.54 z"
         transform="translate(-95.23,-55.03)"
         opacity="0.1"
         id="path942" />
      <path
         d="m 394.38,769.53 c 0,0 -23.78,18.5 -19.77,19 4.01,0.5 19.77,-19 19.77,-19 z"
         transform="translate(-95.23,-55.03)"
         opacity="0.1"
         id="path944" />
      <polygon
         points="334.8,403.87 330.96,347.33 407.96,334.8 407.96,407.7 "
         fill="#2a854e"
         id="polygon946" />
      <polygon
         points="334.8,403.87 330.96,347.33 407.96,334.8 407.96,407.7 "
         opacity="0.05"
         id="polygon948" />
      <polygon
         points="407.96,407.7 407.96,334.8 500.3,341.71 495.19,405.15 "
         fill="#2a854e"
         id="polygon950" />
      <polygon
         points="407.96,407.7 407.96,334.8 500.3,341.71 495.19,405.15 "
         opacity="0.1"
         id="polygon952" />
      <polygon
         points="515.39,318.94 436.35,312.55 407.96,334.8 500.3,341.71 "
         fill="#2a854e"
         id="polygon954" />
      <polygon
         points="330.96,347.33 303.08,323.03 372.4,314.59 407.96,334.8 "
         fill="#2a854e"
         id="polygon956" />
      <polygon
         points="424.84,453.4 388.77,449.7 373.08,448.1 368.3,447.6 352.62,445.99 330.96,443.77 330.96,347.33 407.95,352.57 424.84,353.73 "
         fill="#2a854e"
         id="polygon958" />
      <polygon
         points="500.3,438.91 471.39,444.46 457.33,447.16 424.84,453.4 424.84,353.73 500.3,341.71 "
         fill="#2a854e"
         id="polygon960" />
      <polygon
         points="500.3,438.91 471.39,444.46 457.33,447.16 424.84,453.4 424.84,353.73 500.3,341.71 "
         opacity="0.05"
         id="polygon962" />
      <polygon
         points="411.02,377.01 303.08,368.31 330.96,347.33 424.84,353.73 "
         fill="#2a854e"
         id="polygon964" />
      <polygon
         points="411.02,377.01 303.08,368.31 330.96,347.33 424.84,353.73 "
         fill="#ffffff"
         opacity="0.1"
         id="polygon966" />
      <polygon
         points="530.23,362.17 500.3,341.71 424.84,353.73 449.4,375.73 "
         fill="#2a854e"
         id="polygon968" />
      <polygon
         points="530.23,362.17 500.3,341.71 424.84,353.73 449.4,375.73 "
         fill="#ffffff"
         opacity="0.1"
         id="polygon970" />
      <polygon
         points="470.5,423.07 471.39,444.46 457.33,447.16 457.33,426.39 "
         fill="#ffffff"
         opacity="0.1"
         id="polygon972" />
      <polygon
         points="373.08,435.96 388.77,435.96 388.77,449.7 373.08,448.1 "
         fill="#ffffff"
         opacity="0.1"
         id="polygon974" />
      <polygon
         points="352.62,440.29 368.3,440.29 368.3,447.6 352.62,445.99 "
         fill="#ffffff"
         opacity="0.1"
         id="polygon976" />
      <path
         d="m 510.63,483.7 c -10.75,13.75 -46.25,4.25 -46.25,4.25 L 438,460.43 l -3.58,-3.73 7,-13 c 0,0 2,0.66 5.34,1.82 17.68,6.18 72.92,26.61 63.87,38.18 z"
         transform="translate(-95.23,-55.03)"
         opacity="0.1"
         id="path978" />
      <path
         d="m 509.63,481.7 c -10.75,13.75 -46.25,4.25 -46.25,4.25 L 437,458.43 l -3.58,-3.73 7,-13 c 0,0 2,0.66 5.34,1.82 17.68,6.18 72.92,26.61 63.87,38.18 z"
         transform="translate(-95.23,-55.03)"
         fill="#efb7b9"
         id="path980" />
      <path
         d="m 445.72,443.52 c -1.46,4.2 -5.17,10.42 -8.76,14.91 l -3.58,-3.73 7,-13 c 0,0 2.01,0.66 5.34,1.82 z"
         transform="translate(-95.23,-55.03)"
         opacity="0.1"
         id="path982" />
      <path
         d="m 358.38,288 c 0,0 -26.25,10 -26.5,38 a 460.08,460.08 0 0 0 3,54 c 0,0 -7.5,41.75 13.75,53.75 21.25,12 41,22 41,22 0,0 33.95,5.5 38.12,7.25 4.17,1.75 18.66,-20.75 16.41,-24.5 -2.25,-3.75 -33.16,-13 -36.83,-19.25 -3.67,-6.25 -12.71,-10.46 -12.71,-10.46 0,0 -9.22,-6.29 -9.59,-11.54 -0.37,-5.25 2.35,-9 3.12,-11.25 0.77,-2.25 3.56,-24.25 3.56,-24.25 0,0 14.92,-78.05 -33.33,-73.75 z"
         transform="translate(-95.23,-55.03)"
         fill="#dce6f2"
         id="path984" />
      <path
         d="m 370.38,380.7 c 0,0 -35.5,4 -32.75,16.5 0,0 13.49,-12.61 32.75,-16.5 z"
         transform="translate(-95.23,-55.03)"
         opacity="0.1"
         id="path986" />
      <path
         d="m 370.38,385.7 c 0,0 -20.15,14.75 -16.45,15.75 3.7,1 16.45,-15.75 16.45,-15.75 z"
         transform="translate(-95.23,-55.03)"
         opacity="0.1"
         id="path988" />
      <path
         d="m 379.38,391.7 c 0,0 -5.75,10.34 -2.5,9.8 3.25,-0.54 2.5,-9.8 2.5,-9.8 z"
         transform="translate(-95.23,-55.03)"
         opacity="0.1"
         id="path990" />
      <path
         d="m 749,167.42 c 0,0 -38,-2.29 -33.56,24.37 0,0 -0.89,4.71 3.38,6.85 0,0 0.07,-2 3.9,-1.31 a 17.51,17.51 0 0 0 4.13,0.2 8.57,8.57 0 0 0 5.06,-2.09 v 0 c 0,0 10.69,-4.41 14.85,-21.89 0,0 3.08,-3.82 3,-4.8 l -6.42,2.75 c 0,0 2.19,4.63 0.46,8.48 0,0 -0.2,-8.31 -1.44,-8.12 -0.25,0 -3.33,1.61 -3.33,1.61 0,0 3.77,8.06 0.92,13.93 0,0 1.08,-9.94 -2.1,-13.35 l -4.52,2.64 c 0,0 4.41,8.33 1.42,15.13 0,0 0.77,-10.43 -2.37,-14.49 l -4.1,3.19 c 0,0 4.15,8.22 1.62,13.86 0,0 -0.33,-12.14 -2.51,-13.06 0,0 -3.58,3.16 -4.12,4.46 0,0 2.83,6 1.07,9.11 0,0 -1.08,-8.09 -2,-8.13 0,0 -3.57,5.36 -3.94,9 a 19.46,19.46 0 0 1 3.07,-9.54 10.71,10.71 0 0 0 -5.46,2.83 c 0,0 0.55,-3.79 6.34,-4.12 0,0 3,-4.07 3.74,-4.32 0,0 -5.76,-0.48 -9.25,1.07 0,0 3.07,-3.57 10.31,-2 l 4,-3.3 c 0,0 -7.58,-1 -10.8,0.11 0,0 3.7,-3.16 11.89,-0.86 l 4.4,-2.63 c 0,0 -6.46,-1.4 -10.31,-0.89 0,0 4.06,-2.19 11.6,0.18 l 3.15,-1.41 c 0,0 -4.74,-0.93 -6.12,-1.08 -1.38,-0.15 -1.46,-0.53 -1.46,-0.53 a 16.36,16.36 0 0 1 8.89,1 c 0,0 6.75,-2.43 6.61,-2.85 z"
         transform="translate(-95.23,-55.03)"
         fill="#2a854e"
         id="path992" />
      <path
         d="m 864.46,300.76 c 0,0 -38,-2.29 -33.56,24.37 0,0 -0.89,4.71 3.38,6.85 0,0 0.07,-2 3.91,-1.31 a 17.51,17.51 0 0 0 4.13,0.2 8.56,8.56 0 0 0 5,-2.08 v 0 c 0,0 10.7,-4.42 14.86,-21.9 0,0 3.07,-3.81 2.95,-4.79 l -6.42,2.74 c 0,0 2.19,4.63 0.47,8.48 0,0 -0.21,-8.31 -1.44,-8.12 -0.25,0 -3.34,1.61 -3.34,1.61 0,0 3.78,8.07 0.93,13.93 0,0 1.08,-9.94 -2.11,-13.35 l -4.47,2.61 c 0,0 4.41,8.33 1.42,15.13 0,0 0.77,-10.43 -2.37,-14.49 l -4.09,3.2 c 0,0 4.14,8.21 1.62,13.85 0,0 -0.33,-12.14 -2.51,-13.06 0,0 -3.58,3.16 -4.13,4.46 0,0 2.84,6 1.08,9.11 0,0 -1.08,-8.09 -2,-8.13 0,0 -3.57,5.36 -3.94,9 a 19.52,19.52 0 0 1 3.08,-9.54 10.76,10.76 0 0 0 -5.47,2.83 c 0,0 0.56,-3.79 6.35,-4.12 0,0 2.95,-4.07 3.74,-4.32 0,0 -5.76,-0.48 -9.25,1.07 0,0 3.07,-3.57 10.3,-1.95 l 4,-3.3 c 0,0 -7.59,-1 -10.8,0.11 0,0 3.7,-3.16 11.89,-0.86 l 4.4,-2.63 c 0,0 -6.47,-1.39 -10.32,-0.89 0,0 4.07,-2.19 11.61,0.18 l 3.15,-1.41 c 0,0 -4.74,-0.93 -6.13,-1.08 -1.39,-0.15 -1.46,-0.53 -1.46,-0.53 a 16.39,16.39 0 0 1 8.9,1 c 0,0 6.76,-2.45 6.64,-2.87 z"
         transform="translate(-95.23,-55.03)"
         fill="#2a854e"
         opacity="0.1"
         id="path994" />
      <path
         d="m 633.61,277.09 c 0,0 8.75,-37.09 -18.29,-37.22 0,0 -4.49,-1.68 -7.32,2.16 0,0 1.93,0.41 0.62,4.07 a 17.8,17.8 0 0 0 -0.9,4 8.59,8.59 0 0 0 1.19,5.33 v 0 c 0,0 2.53,11.3 19,18.38 0,0 3.24,3.68 4.22,3.72 l -1.6,-6.79 c 0,0 -4.94,1.37 -8.44,-1 0,0 8.23,1.21 8.24,0 0,-0.25 -1,-3.56 -1,-3.56 0,0 -8.59,2.34 -13.89,-1.47 0,0 9.61,2.76 13.52,0.21 l -1.8,-4.92 c 0,0 -9,2.93 -15.16,-1.18 0,0 10.15,2.54 14.69,0.14 l -2.45,-4.58 c 0,0 -8.8,2.68 -13.93,-0.77 0,0 12,1.74 13.3,-0.24 0,0 -2.5,-4.07 -3.69,-4.83 0,0 -6.36,1.78 -9.16,-0.49 0,0 8.15,0.31 8.34,-0.55 0,0 -4.67,-4.43 -8.23,-5.43 a 19.6,19.6 0 0 1 8.89,4.66 10.79,10.79 0 0 0 -1.86,-5.87 c 0,0 3.64,1.2 3,7 0,0 3.5,3.6 3.61,4.42 0,0 1.45,-5.59 0.52,-9.3 0,0 3,3.64 0.17,10.49 l 2.56,4.55 c 0,0 2.32,-7.3 1.73,-10.66 0,0 2.49,4.18 -1.18,11.86 l 1.85,4.79 c 0,0 2.47,-6.14 2.63,-10 0,0 1.47,4.38 -2.16,11.41 l 0.86,3.34 c 0,0 1.72,-4.51 2.1,-5.85 0.38,-1.34 0.77,-1.35 0.77,-1.35 a 16.38,16.38 0 0 1 -2.49,8.6 c 0,0 1.31,6.98 1.74,6.93 z"
         transform="translate(-95.23,-55.03)"
         fill="#2a854e"
         opacity="0.1"
         id="path996" />
      <path
         d="m 550.39,289.73 c 0,0 -30.52,-22.83 -41.43,1.9 0,0 -3.33,3.45 -0.94,7.58 0,0 1.14,-1.61 4,1.06 a 17.51,17.51 0 0 0 3.34,2.44 8.58,8.58 0 0 0 5.37,1 v 0 c 0,0 11.36,2.19 24.44,-10.12 0,0 4.67,-1.5 5.11,-2.38 L 543.39,290 c 0,0 -0.72,5.07 -4.27,7.34 0,0 4.39,-7.06 3.25,-7.57 -0.23,-0.11 -3.67,-0.5 -3.67,-0.5 0,0 -1.28,8.82 -6.88,12.15 0,0 6.37,-7.71 5.58,-12.31 l -5.23,-0.28 c 0,0 -0.89,9.39 -7.13,13.43 0,0 6.37,-8.29 6,-13.41 l -5.18,0.42 c 0,0 -1.05,9.13 -6.26,12.45 0,0 6.39,-10.32 5.08,-12.28 0,0 -4.73,0.67 -5.9,1.45 0,0 -0.91,6.54 -4.11,8.2 0,0 3.55,-7.35 2.83,-7.86 0,0 -5.93,2.51 -8.26,5.37 a 19.53,19.53 0 0 1 7.82,-6.28 10.77,10.77 0 0 0 -6.12,-0.64 c 0,0 2.54,-2.86 7.56,0.05 0,0 4.7,-1.77 5.5,-1.55 0,0 -4.55,-3.57 -8.32,-4.19 0,0 4.54,-1.3 9.69,4 l 5.19,-0.53 c 0,0 -5.77,-5 -9.08,-5.84 0,0 4.83,-0.61 10.4,5.81 l 5.12,0.23 c 0,0 -4.63,-4.72 -8.12,-6.42 0,0 4.59,0.4 9.59,6.53 l 3.41,0.55 c 0,0 -3.45,-3.38 -4.53,-4.26 -1.08,-0.88 -0.93,-1.25 -0.93,-1.25 a 16.43,16.43 0 0 1 6.89,5.72 c 0,0 6.95,1.61 7.08,1.2 z"
         transform="translate(-95.23,-55.03)"
         fill="#2a854e"
         opacity="0.1"
         id="path998" />
      <path
         d="m 652,77.62 c 0,0 -30.52,-22.84 -41.43,1.9 0,0 -3.33,3.45 -0.94,7.58 0,0 1.14,-1.61 4,1.06 a 17.79,17.79 0 0 0 3.35,2.43 8.57,8.57 0 0 0 5.37,1 v 0 c 0,0 11.36,2.19 24.44,-10.13 0,0 4.67,-1.49 5.1,-2.38 L 645,77.89 c 0,0 -0.71,5.07 -4.27,7.34 0,0 4.4,-7.06 3.26,-7.57 -0.23,-0.11 -3.67,-0.5 -3.67,-0.5 0,0 -1.32,8.84 -6.92,12.15 0,0 6.36,-7.71 5.58,-12.31 l -5.23,-0.28 c 0,0 -0.9,9.39 -7.13,13.42 0,0 6.37,-8.29 6,-13.41 l -5.17,0.42 c 0,0 -1.06,9.14 -6.27,12.46 0,0 6.4,-10.32 5.09,-12.28 0,0 -4.73,0.67 -5.9,1.45 0,0 -0.91,6.54 -4.11,8.2 0,0 3.55,-7.35 2.83,-7.87 0,0 -5.93,2.52 -8.26,5.38 a 19.44,19.44 0 0 1 7.82,-6.28 10.7,10.7 0 0 0 -6.13,-0.64 c 0,0 2.55,-2.86 7.57,0.05 0,0 4.7,-1.78 5.5,-1.55 0,0 -4.55,-3.57 -8.32,-4.2 0,0 4.53,-1.29 9.68,4 l 5.19,-0.53 c 0,0 -5.76,-5 -9.08,-5.85 0,0 4.83,-0.6 10.41,5.82 l 5.12,0.22 c 0,0 -4.63,-4.72 -8.13,-6.41 0,0 4.6,0.4 9.6,6.53 l 3.4,0.55 c 0,0 -3.46,-3.34 -4.54,-4.2 -1.08,-0.86 -0.93,-1.24 -0.93,-1.24 a 16.4,16.4 0 0 1 6.89,5.72 c 0,0 6.95,1.52 7.12,1.14 z"
         transform="translate(-95.23,-55.03)"
         fill="#2a854e"
         opacity="0.1"
         id="path1000" />
      <path
         d="m 768.62,106.55 c 0,0 -12.2,-36.11 -35.21,-21.92 0,0 -4.7,1 -5.07,5.71 0,0 1.85,-0.68 2.67,3.12 a 18,18 0 0 0 1.37,3.91 8.66,8.66 0 0 0 3.84,3.89 v 0 c 0,0 8.12,8.25 25.88,5.52 0,0 4.69,1.42 5.55,0.93 l -5,-4.91 c 0,0 -3.46,3.77 -7.68,3.62 0,0 7.63,-3.32 7,-4.39 -0.13,-0.21 -2.74,-2.48 -2.74,-2.48 0,0 -6.06,6.53 -12.56,6.1 0,0 9.61,-2.74 11.57,-7 l -4.14,-3.19 c 0,0 -6.06,7.22 -13.49,7 0,0 10,-3.21 12.53,-7.65 l -4.5,-2.59 c 0,0 -6,6.93 -12.22,6.71 0,0 11.12,-4.87 11.15,-7.23 0,0 -4.27,-2.13 -5.68,-2.15 0,0 -4.46,4.87 -8,4.43 0,0 7.08,-4.05 6.78,-4.88 0,0 -6.3,-1.29 -9.85,-0.25 a 19.49,19.49 0 0 1 10,-0.75 10.79,10.79 0 0 0 -4.69,-4 c 0,0 3.72,-0.91 6.21,4.33 0,0 4.88,1.21 5.4,1.84 0,0 -1.72,-5.51 -4.47,-8.17 0,0 4.47,1.51 5.69,8.82 l 4.58,2.5 c 0,0 -1.89,-7.41 -4.17,-10 0,0 4.33,2.24 5.27,10.69 l 4.1,3.09 c 0,0 -1.14,-6.52 -3.06,-9.9 0,0 3.56,2.94 4.2,10.83 l 2.49,2.38 c 0,0 -0.92,-4.74 -1.3,-6.08 C 760.69,93.09 761,93 761,93 a 16.49,16.49 0 0 1 2.43,8.62 c 0,0 4.84,5.19 5.19,4.93 z"
         transform="translate(-95.23,-55.03)"
         fill="#2a854e"
         opacity="0.1"
         id="path1002" />
      <path
         d="m 689,108.33 c 0,0 -37.9,-4.22 -34.77,22.67 0,0 -1.13,4.66 3,7 0,0 0.17,-2 4,-1.1 a 18.4,18.4 0 0 0 4.12,0.41 8.6,8.6 0 0 0 5.15,-1.83 v 0 c 0,0 10.91,-3.87 16,-21.12 0,0 3.26,-3.65 3.19,-4.64 l -6.55,2.42 c 0,0 2,4.73 0,8.49 0,0 0.21,-8.31 -1,-8.18 -0.25,0 -3.41,1.44 -3.41,1.44 0,0 3.36,8.25 0.22,14 0,0 1.58,-9.88 -1.43,-13.44 l -4.65,2.4 c 0,0 4,8.55 0.65,15.19 0,0 1.3,-10.38 -1.63,-14.59 l -4.25,3 c 0,0 3.72,8.41 0.91,13.92 0,0 0.29,-12.14 -1.84,-13.17 0,0 -3.74,3 -4.35,4.24 0,0 2.53,6.1 0.62,9.15 0,0 -0.67,-8.13 -1.55,-8.21 0,0 -3.84,5.17 -4.4,8.82 a 19.47,19.47 0 0 1 3.56,-9.38 10.76,10.76 0 0 0 -5.6,2.55 c 0,0 0.74,-3.75 6.54,-3.79 0,0 3.15,-3.91 4,-4.12 0,0 -5.73,-0.77 -9.3,0.6 0,0 3.25,-3.42 10.39,-1.43 l 4.21,-3.09 c 0,0 -7.61,-1.54 -10.83,-0.54 0,0 3.86,-3 11.92,-0.25 l 4.53,-2.41 c 0,0 -6.39,-1.72 -10.26,-1.41 0,0 4.17,-2 11.58,0.77 l 3.22,-1.25 c 0,0 -4.69,-1.17 -6.07,-1.39 -1.38,-0.22 -1.43,-0.6 -1.43,-0.6 a 16.45,16.45 0 0 1 8.84,1.44 c 0,0 6.74,-2.15 6.67,-2.57 z"
         transform="translate(-95.23,-55.03)"
         fill="#2a854e"
         opacity="0.1"
         id="path1004" />
      <path
         d="m 1020.6,402.5 c 0,0 -37.88,-4.22 -34.75,22.64 0,0 -1.13,4.66 3,7 0,0 0.17,-2 4,-1.11 a 17.3,17.3 0 0 0 4.12,0.41 8.53,8.53 0 0 0 5.15,-1.83 v 0 c 0,0 10.91,-3.87 15.95,-21.11 0,0 3.26,-3.66 3.19,-4.64 l -6.55,2.41 c 0,0 2,4.74 0,8.5 0,0 0.21,-8.32 -1,-8.18 -0.25,0 -3.41,1.43 -3.41,1.43 0,0 3.36,8.25 0.22,14 0,0 1.58,-9.87 -1.43,-13.44 l -4.65,2.41 c 0,0 4,8.55 0.66,15.19 0,0 1.29,-10.38 -1.64,-14.6 l -4.25,3 c 0,0 3.72,8.41 0.91,13.91 0,0 0.29,-12.14 -1.84,-13.16 0,0 -3.73,3 -4.35,4.24 0,0 2.54,6.1 0.62,9.15 0,0 -0.67,-8.13 -1.55,-8.21 0,0 -3.84,5.17 -4.4,8.82 a 19.47,19.47 0 0 1 3.56,-9.38 10.67,10.67 0 0 0 -5.6,2.55 c 0,0 0.74,-3.76 6.54,-3.8 0,0 3.16,-3.91 4,-4.11 0,0 -5.73,-0.78 -9.3,0.59 0,0 3.25,-3.41 10.4,-1.42 l 4.2,-3.09 c 0,0 -7.52,-1.42 -10.79,-0.44 0,0 3.86,-3 11.92,-0.26 l 4.53,-2.4 c 0,0 -6.39,-1.72 -10.26,-1.41 0,0 4.17,-2 11.58,0.77 l 3.22,-1.26 c 0,0 -4.69,-1.17 -6.07,-1.38 -1.38,-0.21 -1.43,-0.6 -1.43,-0.6 a 16.39,16.39 0 0 1 8.84,1.43 c 0,0 6.76,-2.19 6.66,-2.62 z"
         transform="translate(-95.23,-55.03)"
         fill="#2a854e"
         opacity="0.1"
         id="path1006" />
      <path
         d="m 1078.51,437.88 c 0,0 -37.88,-4.21 -34.75,22.64 0,0 -1.12,4.66 3,7 0,0 0.17,-2 4,-1.1 a 17.65,17.65 0 0 0 4.11,0.4 8.64,8.64 0 0 0 5.13,-1.82 v 0 c 0,0 10.9,-3.87 15.94,-21.12 0,0 3.27,-3.65 3.19,-4.64 l -6.55,2.41 c 0,0 2,4.74 0,8.5 0,0 0.21,-8.31 -1,-8.18 -0.25,0 -3.41,1.43 -3.41,1.43 0,0 3.36,8.25 0.22,14 0,0 1.58,-9.87 -1.43,-13.43 l -4.65,2.4 c 0,0 4,8.55 0.66,15.19 0,0 1.29,-10.38 -1.64,-14.59 l -4.25,3 c 0,0 3.72,8.41 0.92,13.92 0,0 0.28,-12.15 -1.85,-13.17 0,0 -3.73,3 -4.35,4.24 0,0 2.54,6.1 0.62,9.15 0,0 -0.67,-8.13 -1.55,-8.21 0,0 -3.84,5.17 -4.39,8.82 a 19.52,19.52 0 0 1 3.55,-9.38 10.76,10.76 0 0 0 -5.6,2.55 c 0,0 0.75,-3.76 6.55,-3.79 0,0 3.15,-3.91 4,-4.12 0,0 -5.73,-0.77 -9.3,0.6 0,0 3.25,-3.42 10.4,-1.43 l 4.2,-3.09 c 0,0 -7.52,-1.42 -10.79,-0.44 0,0 3.86,-3 11.92,-0.25 l 4.53,-2.41 c 0,0 -6.39,-1.72 -10.26,-1.41 0,0 4.17,-2 11.58,0.77 l 3.22,-1.25 c 0,0 -4.69,-1.17 -6.06,-1.39 -1.37,-0.22 -1.44,-0.6 -1.44,-0.6 a 16.45,16.45 0 0 1 8.84,1.44 c 0,0 6.79,-2.21 6.69,-2.64 z"
         transform="translate(-95.23,-55.03)"
         fill="#2a854e"
         opacity="0.1"
         id="path1008" />
      <path
         d="m 949.94,139.87 c 0,0 -30.52,-22.83 -41.43,1.9 0,0 -3.33,3.45 -0.94,7.58 0,0 1.14,-1.61 4,1.06 a 17.51,17.51 0 0 0 3.34,2.44 8.59,8.59 0 0 0 5.37,1 v 0 c 0,0 11.36,2.19 24.45,-10.12 0,0 4.66,-1.5 5.1,-2.38 l -6.87,-1.24 c 0,0 -0.72,5.07 -4.27,7.34 0,0 4.39,-7.06 3.25,-7.57 -0.23,-0.11 -3.66,-0.5 -3.66,-0.5 0,0 -1.29,8.82 -6.89,12.15 0,0 6.37,-7.71 5.58,-12.31 l -5.23,-0.28 c 0,0 -0.89,9.39 -7.13,13.43 0,0 6.38,-8.29 6,-13.41 l -5.18,0.42 c 0,0 -1,9.13 -6.26,12.45 0,0 6.4,-10.32 5.08,-12.28 0,0 -4.73,0.67 -5.9,1.45 0,0 -0.9,6.54 -4.1,8.2 0,0 3.54,-7.35 2.82,-7.86 0,0 -5.93,2.51 -8.26,5.37 a 19.53,19.53 0 0 1 7.82,-6.28 10.77,10.77 0 0 0 -6.12,-0.64 c 0,0 2.55,-2.86 7.57,0.05 0,0 4.69,-1.77 5.49,-1.55 0,0 -4.55,-3.57 -8.32,-4.19 0,0 4.54,-1.3 9.69,4 l 5.19,-0.53 c 0,0 -5.76,-5 -9.08,-5.84 0,0 4.83,-0.61 10.4,5.81 l 5.13,0.23 c 0,0 -4.64,-4.72 -8.13,-6.42 0,0 4.6,0.4 9.59,6.53 l 3.41,0.55 c 0,0 -3.45,-3.38 -4.53,-4.26 C 935.84,133.29 936,133 936,133 a 16.44,16.44 0 0 1 6.88,5.72 c 0,0 6.93,1.56 7.06,1.15 z"
         transform="translate(-95.23,-55.03)"
         fill="#2a854e"
         opacity="0.1"
         id="path1010" />
      <path
         d="m 973.52,304.69 c 0,0 -10.52,-36.63 -34.18,-23.48 0,0 -4.74,0.73 -5.33,5.47 0,0 1.88,-0.59 2.53,3.24 a 17.73,17.73 0 0 0 1.2,4 8.59,8.59 0 0 0 3.66,4.08 v 0 c 0,0 7.74,8.6 25.6,6.68 0,0 4.62,1.62 5.5,1.18 l -4.73,-5.14 c 0,0 -3.63,3.62 -7.83,3.28 0,0 7.76,-3 7.16,-4.07 -0.12,-0.22 -2.62,-2.61 -2.62,-2.61 0,0 -6.34,6.26 -12.82,5.53 0,0 9.73,-2.3 11.87,-6.44 l -4,-3.38 c 0,0 -6.38,6.94 -13.79,6.4 0,0 10.08,-2.77 12.86,-7.08 l -4.38,-2.79 c 0,0 -6.35,6.65 -12.51,6.15 0,0 11.33,-4.37 11.47,-6.72 0,0 -4.18,-2.32 -5.59,-2.4 0,0 -4.67,4.66 -8.22,4.06 0,0 7.26,-3.73 7,-4.57 0,0 -6.24,-1.57 -9.83,-0.7 a 19.51,19.51 0 0 1 10,-0.29 10.73,10.73 0 0 0 -4.5,-4.2 c 0,0 3.76,-0.75 6,4.6 0,0 4.81,1.42 5.31,2.08 0,0 -1.47,-5.59 -4.1,-8.36 0,0 4.4,1.7 5.29,9.06 l 4.46,2.71 c 0,0 -1.56,-7.5 -3.72,-10.14 0,0 4.22,2.43 4.79,10.91 l 4,3.27 c 0,0 -0.85,-6.56 -2.61,-10 0,0 3.43,3.1 3.71,11 l 2.38,2.5 c 0,0 -0.7,-4.78 -1,-6.14 -0.3,-1.36 0,-1.55 0,-1.55 a 16.39,16.39 0 0 1 2.05,8.72 c 0,0 4.56,5.38 4.92,5.14 z"
         transform="translate(-95.23,-55.03)"
         fill="#2a854e"
         opacity="0.1"
         id="path1012" />
      <path
         d="m 739.1,387.23 c 0,0 -20.43,-32.18 -39.4,-12.92 0,0 -4.34,2 -3.58,6.75 0,0 1.65,-1.1 3.35,2.4 a 17.12,17.12 0 0 0 2.26,3.46 8.54,8.54 0 0 0 4.65,2.88 v 0 c 0,0 9.85,6.08 26.45,-0.8 0,0 4.89,0.26 5.61,-0.41 l -6,-3.6 c 0,0 -2.47,4.5 -6.6,5.35 0,0 6.62,-5 5.73,-5.92 -0.17,-0.18 -3.25,-1.76 -3.25,-1.76 0,0 -4.33,7.78 -10.75,8.91 0,0 8.69,-4.95 9.59,-9.53 l -4.79,-2.11 c 0,0 -4.17,8.45 -11.43,10 0,0 8.9,-5.49 10.35,-10.41 l -5,-1.44 c 0,0 -4.22,8.17 -10.27,9.42 0,0 9.64,-7.38 9.11,-9.68 0,0 -4.66,-1.05 -6,-0.73 0,0 -3.17,5.79 -6.75,6.21 0,0 5.92,-5.62 5.43,-6.36 0,0 -6.43,0.25 -9.63,2.1 a 19.46,19.46 0 0 1 9.54,-3.1 10.73,10.73 0 0 0 -5.49,-2.77 c 0,0 3.39,-1.77 7,2.73 0,0 5,0 5.69,0.5 0,0 -3,-5 -6.29,-6.87 0,0 4.7,0.4 7.62,7.21 l 5.05,1.34 c 0,0 -3.61,-6.75 -6.42,-8.68 0,0 4.73,1.14 7.66,9.13 l 4.72,2 c 0,0 -2.66,-6.05 -5.33,-8.88 0,0 4.16,2 6.65,9.51 l 3,1.73 c 0,0 -2,-4.39 -2.71,-5.6 -0.71,-1.21 -0.43,-1.49 -0.43,-1.49 a 16.4,16.4 0 0 1 4.41,7.79 c 0,0 5.98,3.98 6.25,3.64 z"
         transform="translate(-95.23,-55.03)"
         fill="#2a854e"
         opacity="0.1"
         id="path1014" />
      <path
         d="m 873.37,222.81 c 0,0 -19.43,-32.79 -39,-14.13 0,0 -4.4,1.9 -3.78,6.64 0,0 1.67,-1.06 3.27,2.49 a 17.28,17.28 0 0 0 2.15,3.54 8.49,8.49 0 0 0 4.56,3 v 0 c 0,0 9.65,6.38 26.46,0 0,0 4.88,0.41 5.62,-0.24 l -5.87,-3.78 c 0,0 -2.6,4.41 -6.76,5.14 0,0 6.77,-4.83 5.92,-5.74 -0.18,-0.19 -3.2,-1.87 -3.2,-1.87 0,0 -4.57,7.65 -11,8.58 0,0 8.84,-4.68 9.87,-9.22 L 856.89,215 c 0,0 -4.43,8.33 -11.74,9.66 0,0 9.07,-5.21 10.67,-10.08 l -4.94,-1.6 c 0,0 -4.48,8 -10.56,9.1 0,0 9.86,-7.08 9.4,-9.39 0,0 -4.62,-1.2 -6,-0.92 0,0 -3.35,5.69 -6.94,6 0,0 6.09,-5.42 5.63,-6.18 0,0 -6.44,0.05 -9.69,1.8 a 19.52,19.52 0 0 1 9.63,-2.8 10.75,10.75 0 0 0 -5.41,-2.94 c 0,0 3.45,-1.67 7,2.94 0,0 5,0.17 5.67,0.68 0,0 -2.83,-5 -6.07,-7.06 0,0 4.68,0.54 7.39,7.44 l 5,1.5 c 0,0 -3.39,-6.86 -6.15,-8.88 0,0 4.7,1.29 7.38,9.36 l 4.65,2.17 c 0,0 -2.47,-6.13 -5,-9 0,0 4.09,2.13 6.36,9.71 l 2.93,1.82 c 0,0 -1.88,-4.45 -2.54,-5.68 -0.66,-1.23 -0.38,-1.5 -0.38,-1.5 a 16.43,16.43 0 0 1 4.17,7.92 c 0,0 5.73,4.07 6.02,3.74 z"
         transform="translate(-95.23,-55.03)"
         fill="#2a854e"
         id="path1016" />
      <path
         d="m 750.44,291.76 c 0,0 1,-38.1 -25.47,-32.73 0,0 -4.74,-0.73 -6.74,3.61 0,0 2,0 1.44,3.85 a 17.56,17.56 0 0 0 -0.06,4.14 8.55,8.55 0 0 0 2.25,5 v 0 c 0,0 4.77,10.54 22.38,14.12 0,0 3.91,2.95 4.89,2.79 l -3,-6.32 c 0,0 -4.55,2.34 -8.46,0.75 0,0 8.3,-0.49 8.07,-1.71 0,-0.25 -1.72,-3.29 -1.72,-3.29 0,0 -7.94,4.05 -13.89,1.39 0,0 10,0.75 13.27,-2.54 l -2.79,-4.43 c 0,0 -8.18,4.68 -15.08,1.92 0,0 10.45,0.42 14.41,-2.85 l -3.33,-4 c 0,0 -8.07,4.42 -13.79,2.08 0,0 12.12,-0.73 13,-2.94 0,0 -3.28,-3.47 -4.6,-4 0,0 -5.86,3 -9.06,1.38 0,0 8,-1.34 8.05,-2.23 0,0 -5.47,-3.39 -9.16,-3.64 a 19.47,19.47 0 0 1 9.65,2.76 10.75,10.75 0 0 0 -3,-5.37 c 0,0 3.81,0.43 4.33,6.2 0,0 4.17,2.82 4.44,3.6 0,0 0.29,-5.77 -1.38,-9.21 0,0 3.68,2.95 2.3,10.23 l 3.43,3.94 c 0,0 0.78,-7.62 -0.47,-10.79 0,0 3.28,3.59 1.26,11.85 l 2.77,4.31 c 0,0 1.18,-6.51 0.55,-10.34 0,0 2.32,4 0.2,11.61 l 1.52,3.1 c 0,0 0.77,-4.77 0.87,-6.16 0.1,-1.39 0.48,-1.48 0.48,-1.48 a 16.42,16.42 0 0 1 -0.69,8.93 c 0,0 2.69,6.6 3.13,6.47 z"
         transform="translate(-95.23,-55.03)"
         fill="#2a854e"
         id="path1018" />
      <ellipse
         cx="698.96997"
         cy="716.29999"
         rx="26.93"
         ry="4.5500002"
         fill="#2a854e"
         opacity="0.1"
         id="ellipse1020" />
      <ellipse
         cx="600.79999"
         cy="785.38"
         rx="26.93"
         ry="4.5500002"
         fill="#2a854e"
         opacity="0.1"
         id="ellipse1022" />
      <ellipse
         cx="93.139999"
         cy="749.98999"
         rx="26.93"
         ry="4.5500002"
         fill="#2a854e"
         opacity="0.1"
         id="ellipse1024" />
      <ellipse
         cx="805.06"
         cy="780.83002"
         rx="26.93"
         ry="4.5500002"
         fill="#2a854e"
         opacity="0.1"
         id="ellipse1026" />
      <ellipse
         cx="833.09998"
         cy="723.09998"
         rx="40.209999"
         ry="6.8000002"
         fill="#2a854e"
         id="ellipse1028" />
      <path
         d="m 945,767 a 11.61,11.61 0 0 0 3.83,-5.78 c 0.5,-2.3 -0.48,-5.05 -2.67,-5.89 -2.46,-0.94 -5.09,0.76 -7.09,2.48 -2,1.72 -4.27,3.69 -6.88,3.33 a 10.5,10.5 0 0 0 3.24,-9.81 4.11,4.11 0 0 0 -0.9,-2 c -1.37,-1.46 -3.84,-0.83 -5.48,0.32 -5.2,3.66 -6.65,10.72 -6.68,17.08 -0.52,-2.29 -0.08,-4.68 -0.09,-7 -0.01,-2.32 -0.66,-5 -2.65,-6.22 a 7.91,7.91 0 0 0 -4,-1 c -2.34,-0.08 -4.95,0.15 -6.54,1.86 -2,2.12 -1.47,5.69 0.25,8 1.72,2.31 4.35,3.8 6.77,5.42 a 15.13,15.13 0 0 1 4.84,4.61 4.7,4.7 0 0 1 0.35,0.82 h 14.66 A 40.44,40.44 0 0 0 945,767 Z"
         transform="translate(-95.23,-55.03)"
         fill="#2a854e"
         id="path1030" />
      <path
         d="m 170.29,783.87 c 0,0 15.35,-0.47 20,-3.77 4.65,-3.3 23.63,-7.23 24.78,-1.94 1.15,5.29 23.08,26.29 5.74,26.43 -17.34,0.14 -40.29,-2.7 -44.91,-5.52 -4.62,-2.82 -5.61,-15.2 -5.61,-15.2 z"
         transform="translate(-95.23,-55.03)"
         fill="#a8a8a8"
         id="path1032" />
      <path
         d="m 221.1,802.75 c -17.34,0.14 -40.29,-2.7 -44.91,-5.52 -3.52,-2.14 -4.92,-9.83 -5.39,-13.38 h -0.51 c 0,0 1,12.39 5.59,15.2 4.59,2.81 27.57,5.66 44.91,5.52 5,0 6.73,-1.82 6.64,-4.46 -0.7,1.61 -2.61,2.61 -6.33,2.64 z"
         transform="translate(-95.23,-55.03)"
         opacity="0.2"
         id="path1034" />
    </g>
    <g
       style="font-style:normal;font-weight:normal;font-size:10.5833px;line-height:1.25;font-family:sans-serif;letter-spacing:0px;word-spacing:0px;fill:#287f4a;fill-opacity:1;stroke:none;stroke-width:0.264583"
       id="text1145"
       aria-label="NO ITEMS FOUND">
      <path
         id="path1165"
         style="font-style:normal;font-variant:normal;font-weight:bold;font-stretch:normal;font-family:Inter;-inkscape-font-specification:'Inter Bold';fill:#287f4a;fill-opacity:1;stroke-width:0.264583"
         d="m 66.991631,145.37688 h -1.619816 v 4.84065 h -0.06765 l -3.322314,-4.84065 h -1.428144 v 7.69694 h 1.627333 v -4.84441 h 0.05637 l 3.348622,4.84441 h 1.405594 z" />
      <path
         id="path1167"
         style="font-style:normal;font-variant:normal;font-weight:bold;font-stretch:normal;font-family:Inter;-inkscape-font-specification:'Inter Bold';fill:#287f4a;fill-opacity:1;stroke-width:0.264583"
         d="m 75.406399,149.22535 c 0,-2.51804 -1.563442,-3.9537 -3.604185,-3.9537 -2.052017,0 -3.604184,1.43566 -3.604184,3.9537 0,2.50677 1.552167,3.9537 3.604184,3.9537 2.040743,0 3.604185,-1.43566 3.604185,-3.9537 z m -1.649882,0 c 0,1.63109 -0.774204,2.51428 -1.954303,2.51428 -1.183856,0 -1.954302,-0.88319 -1.954302,-2.51428 0,-1.63109 0.770446,-2.51429 1.954302,-2.51429 1.180099,0 1.954303,0.8832 1.954303,2.51429 z" />
      <path
         id="path1169"
         style="font-style:normal;font-variant:normal;font-weight:bold;font-stretch:normal;font-family:Inter;-inkscape-font-specification:'Inter Bold';fill:#287f4a;fill-opacity:1;stroke-width:0.264583"
         d="m 80.690511,145.37688 h -1.627333 v 7.69694 h 1.627333 z" />
      <path
         id="path1171"
         style="font-style:normal;font-variant:normal;font-weight:bold;font-stretch:normal;font-family:Inter;-inkscape-font-specification:'Inter Bold';fill:#287f4a;fill-opacity:1;stroke-width:0.264583"
         d="m 81.739055,146.71858 h 2.356438 v 6.35524 h 1.608541 v -6.35524 h 2.356438 v -1.3417 h -6.321417 z" />
      <path
         id="path1173"
         style="font-style:normal;font-variant:normal;font-weight:bold;font-stretch:normal;font-family:Inter;-inkscape-font-specification:'Inter Bold';fill:#287f4a;fill-opacity:1;stroke-width:0.264583"
         d="m 89.105269,153.07382 h 5.201451 v -1.3417 h -3.574118 v -1.8378 h 3.292248 v -1.3417 h -3.292248 v -1.83404 h 3.559085 v -1.3417 h -5.186418 z" />
      <path
         id="path1175"
         style="font-style:normal;font-variant:normal;font-weight:bold;font-stretch:normal;font-family:Inter;-inkscape-font-specification:'Inter Bold';fill:#287f4a;fill-opacity:1;stroke-width:0.264583"
         d="m 95.58828,145.37688 v 7.69694 h 1.578476 v -5.02857 h 0.06389 l 1.991885,4.99099 h 1.074869 l 1.99188,-4.9722 h 0.0639 v 5.00978 h 1.57848 v -7.69694 h -2.00692 l -2.119666,5.17138 h -0.0902 l -2.119666,-5.17138 z" />
      <path
         id="path1177"
         style="font-style:normal;font-variant:normal;font-weight:bold;font-stretch:normal;font-family:Inter;-inkscape-font-specification:'Inter Bold';fill:#287f4a;fill-opacity:1;stroke-width:0.264583"
         d="m 109.44503,147.5905 h 1.55968 c -0.0226,-1.37177 -1.15003,-2.31885 -2.8638,-2.31885 -1.68747,0 -2.92394,0.93205 -2.91642,2.33013 -0.004,1.13499 0.79675,1.78518 2.09711,2.09711 l 0.8381,0.21047 c 0.83809,0.20294 1.30412,0.44347 1.30788,0.96211 -0.004,0.56374 -0.53744,0.94709 -1.36426,0.94709 -0.84561,0 -1.45445,-0.39086 -1.50706,-1.16131 h -1.57472 c 0.0413,1.66492 1.23271,2.52556 3.10058,2.52556 1.87913,0 2.98406,-0.89823 2.98782,-2.30758 -0.004,-1.28157 -0.96963,-1.96182 -2.30758,-2.26248 l -0.69152,-0.16536 c -0.66897,-0.15409 -1.22896,-0.40214 -1.21768,-0.9546 0,-0.4961 0.43972,-0.86065 1.23647,-0.86065 0.77796,0 1.25527,0.35328 1.3154,0.95836 z" />
      <path
         id="path1179"
         style="font-style:normal;font-variant:normal;font-weight:bold;font-stretch:normal;font-family:Inter;-inkscape-font-specification:'Inter Bold';fill:#287f4a;fill-opacity:1;stroke-width:0.264583"
         d="m 114.65398,153.07382 h 1.62733 v -3.1795 h 3.13064 v -1.3417 h -3.13064 v -1.83404 h 3.46889 v -1.3417 h -5.09622 z" />
      <path
         id="path1181"
         style="font-style:normal;font-variant:normal;font-weight:bold;font-stretch:normal;font-family:Inter;-inkscape-font-specification:'Inter Bold';fill:#287f4a;fill-opacity:1;stroke-width:0.264583"
         d="m 127.91692,149.22535 c 0,-2.51804 -1.56344,-3.9537 -3.60419,-3.9537 -2.05201,0 -3.60418,1.43566 -3.60418,3.9537 0,2.50677 1.55217,3.9537 3.60418,3.9537 2.04075,0 3.60419,-1.43566 3.60419,-3.9537 z m -1.64988,0 c 0,1.63109 -0.77421,2.51428 -1.95431,2.51428 -1.18385,0 -1.9543,-0.88319 -1.9543,-2.51428 0,-1.63109 0.77045,-2.51429 1.9543,-2.51429 1.1801,0 1.95431,0.8832 1.95431,2.51429 z" />
      <path
         id="path1183"
         style="font-style:normal;font-variant:normal;font-weight:bold;font-stretch:normal;font-family:Inter;-inkscape-font-specification:'Inter Bold';fill:#287f4a;fill-opacity:1;stroke-width:0.264583"
         d="m 133.87377,145.37688 v 4.85945 c 0,0.87943 -0.61635,1.51458 -1.56344,1.51458 -0.94332,0 -1.56344,-0.63515 -1.56344,-1.51458 v -4.85945 h -1.62733 v 4.9985 c 0,1.68371 1.27029,2.80743 3.19077,2.80743 1.91296,0 3.19078,-1.12372 3.19078,-2.80743 v -4.9985 z" />
      <path
         id="path1185"
         style="font-style:normal;font-variant:normal;font-weight:bold;font-stretch:normal;font-family:Inter;-inkscape-font-specification:'Inter Bold';fill:#287f4a;fill-opacity:1;stroke-width:0.264583"
         d="m 143.27696,145.37688 h -1.61981 v 4.84065 h -0.0677 l -3.32232,-4.84065 h -1.42814 v 7.69694 h 1.62733 v -4.84441 h 0.0564 l 3.34862,4.84441 h 1.40559 z" />
      <path
         id="path1187"
         style="font-style:normal;font-variant:normal;font-weight:bold;font-stretch:normal;font-family:Inter;-inkscape-font-specification:'Inter Bold';fill:#287f4a;fill-opacity:1;stroke-width:0.264583"
         d="m 147.34717,153.07382 c 2.34516,0 3.76579,-1.45069 3.76579,-3.85599 0,-2.39778 -1.42063,-3.84095 -3.74324,-3.84095 h -2.75106 v 7.69694 z M 146.246,151.6795 v -4.9083 h 1.03728 c 1.44318,0 2.20611,0.73662 2.20611,2.44663 0,1.71753 -0.76293,2.46167 -2.20987,2.46167 z" />
    </g>
  </g>
</svg>
