<?xml version="1.0" encoding="UTF-8" standalone="no"?>
<svg
   xmlns:dc="http://purl.org/dc/elements/1.1/"
   xmlns:cc="http://creativecommons.org/ns#"
   xmlns:rdf="http://www.w3.org/1999/02/22-rdf-syntax-ns#"
   xmlns:svg="http://www.w3.org/2000/svg"
   xmlns="http://www.w3.org/2000/svg"
   xmlns:sodipodi="http://sodipodi.sourceforge.net/DTD/sodipodi-0.dtd"
   xmlns:inkscape="http://www.inkscape.org/namespaces/inkscape"
   inkscape:version="1.0 (4035a4fb49, 2020-05-01)"
   sodipodi:docname="logo.svg"
   id="svg1107"
   version="1.1"
   fill="none"
   viewBox="0 0 368.63699 72"
   height="72"
   width="368.63699">
  <metadata
     id="metadata1111">
    <rdf:RDF>
      <cc:Work
         rdf:about="">
        <dc:format>image/svg+xml</dc:format>
        <dc:type
           rdf:resource="http://purl.org/dc/dcmitype/StillImage" />
        <dc:title></dc:title>
      </cc:Work>
    </rdf:RDF>
  </metadata>
  <sodipodi:namedview
     inkscape:current-layer="svg1107"
     inkscape:window-maximized="1"
     inkscape:window-y="-8"
     inkscape:window-x="-8"
     inkscape:cy="96.662035"
     inkscape:cx="-31.52793"
     inkscape:zoom="1.239577"
     showgrid="false"
     id="namedview1109"
     inkscape:window-height="1027"
     inkscape:window-width="1920"
     inkscape:pageshadow="2"
     inkscape:pageopacity="0"
     guidetolerance="10"
     gridtolerance="10"
     objecttolerance="10"
     borderopacity="1"
     bordercolor="#666666"
     pagecolor="#ffffff" />
  <path
     id="path973"
     fill="#0a88fb"
     d="m 119.264,50.008 h -11.04 L 106.736,55 h -8.064 l 11.712,-33.6 h 6.72 L 128.816,55 h -8.064 z m -1.872,-6.144 -3.648,-12.096 -3.648,12.096 z m 14.652,-6.432 c 0,-2.848 -0.064,-4.992 -0.192,-6.432 h 6.384 c 0.192,1.472 0.288,2.864 0.288,4.176 h 0.096 c 0.544,-1.376 1.536,-2.496 2.976,-3.36 1.472,-0.864 3.104,-1.296 4.896,-1.296 2.752,0 4.832,0.928 6.24,2.784 1.408,1.856 2.112,4.608 2.112,8.256 V 55 h -6.816 V 41.512 c 0,-1.92 -0.304,-3.312 -0.912,-4.176 -0.608,-0.864 -1.584,-1.296 -2.928,-1.296 -1.6,0 -2.896,0.544 -3.888,1.632 -0.96,1.056 -1.44,2.464 -1.44,4.224 V 55 h -6.816 z m 38.849,18.048 c -2.592,0 -4.608,-0.672 -6.048,-2.016 -1.408,-1.344 -2.112,-3.232 -2.112,-5.664 V 36.04 h -4.368 V 31 h 4.368 v -6.096 l 6.624,-1.92 h 0.192 V 31 h 7.008 v 5.04 h -7.008 v 10.704 c 0,1.28 0.32,2.224 0.96,2.832 0.64,0.576 1.632,0.864 2.976,0.864 1.28,0 2.464,-0.208 3.552,-0.624 l 0.288,4.608 c -1.6,0.704 -3.744,1.056 -6.432,1.056 z m 33.101,-9.984 h -16.512 c 0.288,1.44 0.88,2.512 1.776,3.216 0.928,0.704 2.176,1.056 3.744,1.056 1.376,0 2.576,-0.224 3.6,-0.672 1.024,-0.448 2.048,-1.216 3.072,-2.304 l 3.648,3.456 c -0.928,1.568 -2.384,2.832 -4.368,3.792 -1.952,0.96 -4.08,1.44 -6.384,1.44 -3.776,0 -6.736,-1.088 -8.88,-3.264 -2.144,-2.208 -3.216,-5.248 -3.216,-9.12 0,-3.904 1.072,-6.976 3.216,-9.216 2.144,-2.24 5.088,-3.36 8.832,-3.36 3.584,0 6.384,1.12 8.4,3.36 2.048,2.208 3.072,5.264 3.072,9.168 z m -6.72,-4.848 c 0,-1.408 -0.432,-2.512 -1.296,-3.312 -0.864,-0.832 -2.048,-1.248 -3.552,-1.248 -1.344,0 -2.448,0.432 -3.312,1.296 -0.864,0.832 -1.44,2.016 -1.728,3.552 h 9.888 z m 10.694,-3.216 c 0,-2.848 -0.064,-4.992 -0.192,-6.432 h 6.384 c 0.192,1.472 0.288,2.864 0.288,4.176 h 0.096 c 0.544,-1.376 1.536,-2.496 2.976,-3.36 1.472,-0.864 3.104,-1.296 4.896,-1.296 2.752,0 4.832,0.928 6.24,2.784 1.408,1.856 2.112,4.608 2.112,8.256 V 55 h -6.816 V 41.512 c 0,-1.92 -0.304,-3.312 -0.912,-4.176 -0.608,-0.864 -1.584,-1.296 -2.928,-1.296 -1.6,0 -2.896,0.544 -3.888,1.632 -0.96,1.056 -1.44,2.464 -1.44,4.224 V 55 h -6.816 z m 27.762,0 c 0,-2.848 -0.064,-4.992 -0.192,-6.432 h 6.384 c 0.192,1.472 0.288,2.864 0.288,4.176 h 0.096 c 0.544,-1.376 1.536,-2.496 2.976,-3.36 1.472,-0.864 3.104,-1.296 4.896,-1.296 2.752,0 4.832,0.928 6.24,2.784 1.408,1.856 2.112,4.608 2.112,8.256 V 55 h -6.816 V 41.512 c 0,-1.92 -0.304,-3.312 -0.912,-4.176 -0.608,-0.864 -1.584,-1.296 -2.928,-1.296 -1.6,0 -2.896,0.544 -3.888,1.632 -0.96,1.056 -1.44,2.464 -1.44,4.224 V 55 h -6.816 z m 35.201,18.048 c -1.568,0 -2.976,-0.336 -4.224,-1.008 -1.248,-0.672 -2.224,-1.584 -2.928,-2.736 -0.704,-1.184 -1.056,-2.512 -1.056,-3.984 0,-2.464 0.992,-4.352 2.976,-5.664 1.984,-1.312 4.832,-1.968 8.544,-1.968 h 3.36 v -0.96 c 0,-1.088 -0.352,-1.936 -1.056,-2.544 -0.704,-0.608 -1.664,-0.912 -2.88,-0.912 -1.44,0 -2.832,0.24 -4.176,0.72 -1.312,0.48 -2.4,1.136 -3.264,1.968 l -2.928,-3.888 c 1.376,-1.216 2.992,-2.176 4.848,-2.88 1.888,-0.736 3.792,-1.104 5.712,-1.104 3.264,0 5.84,0.768 7.728,2.304 1.888,1.504 2.832,3.568 2.832,6.192 v 10.8 c 0,0.768 0.064,1.68 0.192,2.736 0.128,1.056 0.272,1.872 0.432,2.448 h -6.096 c -0.192,-0.448 -0.336,-0.848 -0.432,-1.2 -0.096,-0.352 -0.176,-0.848 -0.24,-1.488 h -0.096 c -1.792,2.112 -4.208,3.168 -7.248,3.168 z m 1.824,-5.04 c 1.408,0 2.56,-0.352 3.456,-1.056 0.928,-0.736 1.392,-1.664 1.392,-2.784 v -2.016 h -3.552 c -1.504,0 -2.656,0.272 -3.456,0.816 -0.8,0.544 -1.2,1.328 -1.2,2.352 0,0.864 0.288,1.536 0.864,2.016 0.576,0.448 1.408,0.672 2.496,0.672 z M 290.62,21.4 h 11.616 c 4.032,0 7.088,0.928 9.168,2.784 2.112,1.824 3.168,4.528 3.168,8.112 0,3.776 -1.072,6.64 -3.216,8.592 -2.112,1.952 -5.232,2.928 -9.36,2.928 h -3.648 V 55 h -7.728 z m 11.904,16.32 c 1.472,0 2.592,-0.448 3.36,-1.344 0.768,-0.896 1.152,-2.192 1.152,-3.888 0,-1.632 -0.416,-2.864 -1.248,-3.696 -0.8,-0.832 -2,-1.248 -3.6,-1.248 h -3.84 V 37.72 Z m 26.708,17.76 c -3.968,0 -7.072,-1.104 -9.312,-3.312 -2.208,-2.208 -3.312,-5.264 -3.312,-9.168 0,-3.904 1.104,-6.96 3.312,-9.168 2.24,-2.208 5.344,-3.312 9.312,-3.312 3.968,0 7.056,1.104 9.264,3.312 2.24,2.208 3.36,5.264 3.36,9.168 0,3.904 -1.12,6.96 -3.36,9.168 -2.208,2.208 -5.296,3.312 -9.264,3.312 z m 0,-5.04 c 1.824,0 3.248,-0.656 4.272,-1.968 1.024,-1.312 1.536,-3.136 1.536,-5.472 0,-2.336 -0.512,-4.16 -1.536,-5.472 -1.024,-1.312 -2.448,-1.968 -4.272,-1.968 -1.824,0 -3.248,0.656 -4.272,1.968 -1.024,1.312 -1.536,3.136 -1.536,5.472 0,2.336 0.512,4.16 1.536,5.472 1.024,1.312 2.448,1.968 4.272,1.968 z m 25.869,5.04 c -3.168,0 -5.648,-1.136 -7.44,-3.408 -1.792,-2.272 -2.688,-5.424 -2.688,-9.456 0,-2.432 0.416,-4.56 1.248,-6.384 0.832,-1.824 2.016,-3.232 3.552,-4.224 1.568,-0.992 3.392,-1.488 5.472,-1.488 1.408,0 2.608,0.224 3.6,0.672 1.024,0.416 1.936,1.088 2.736,2.016 h 0.096 V 19.384 h 6.816 V 48.52 c 0,3.456 0.048,5.616 0.144,6.48 h -6.432 c -0.032,-0.48 -0.048,-1.472 -0.048,-2.976 h -0.096 c -0.736,1.024 -1.744,1.856 -3.024,2.496 -1.248,0.64 -2.56,0.96 -3.936,0.96 z m 1.392,-5.184 c 1.568,0 2.816,-0.432 3.744,-1.296 0.96,-0.896 1.44,-2.08 1.44,-3.552 v -5.136 c 0,-1.312 -0.496,-2.432 -1.488,-3.36 -0.992,-0.928 -2.224,-1.392 -3.696,-1.392 -1.568,0 -2.752,0.608 -3.552,1.824 -0.8,1.216 -1.2,2.992 -1.2,5.328 0,2.464 0.4,4.352 1.2,5.664 0.8,1.28 1.984,1.92 3.552,1.92 z" />
  <mask
     height="72"
     width="72"
     y="18"
     x="18"
     maskUnits="userSpaceOnUse"
     mask-type="alpha"
     id="mask0">
    <circle
       id="circle975"
       fill="#ff9800"
       r="36"
       cy="54"
       cx="54" />
  </mask>
  <g
     transform="translate(-18,-18)"
     id="g998"
     mask="url(#mask0)">
    <g
       id="g996"
       filter="url(#filter0_d)">
      <rect
         style="fill:url(#paint0_linear)"
         y="0"
         x="0"
         id="rect978"
         fill="url(#paint0_linear)"
         height="108"
         width="108" />
      <g
         id="g982"
         opacity="0.1"
         style="mix-blend-mode:hard-light">
        <rect
           style="fill:url(#paint1_radial)"
           y="0"
           x="0"
           id="rect980"
           fill="url(#paint1_radial)"
           height="108"
           width="108" />
      </g>
      <g
         id="g994"
         clip-path="url(#clip0)">
        <g
           id="g986"
           filter="url(#filter1_ddi)">
          <path
             id="path984"
             fill="#bce5fb"
             d="M 41.2964,71.9637 C 35.6714,67.9787 32,61.4181 32,54 32,41.8497 41.8497,32 54,32 c 12.1503,0 22,9.8497 22,22 0,7.4181 -3.6715,13.9787 -9.2964,17.9638 l 1.3759,3.8978 C 75.2517,71.233 80,63.171 80,54 80,39.6406 68.3594,28 54,28 39.6406,28 28,39.6406 28,54 c 0,9.171 4.7483,17.233 11.9205,21.8616 z m 23.2985,-5.974 C 67.9099,63.0582 70,58.7732 70,54 70,45.1634 62.8366,38 54,38 c -8.8366,0 -16,7.1634 -16,16 0,4.7732 2.0901,9.0582 5.4051,11.9897 l 1.4778,-4.1869 C 43.0857,59.7048 42,56.9792 42,54 c 0,-6.6274 5.3726,-12 12,-12 6.6274,0 12,5.3726 12,12 0,2.9792 -1.0857,5.7049 -2.883,7.8029 z"
             clip-rule="evenodd"
             fill-rule="evenodd" />
        </g>
        <g
           id="g990"
           filter="url(#filter2_ddi)">
          <path
             id="path988"
             fill="#f5f5f5"
             d="m 60,54 c 0,1.6921 -0.7004,3.2206 -1.8272,4.3113 L 64.015,74.8625 78.3571,115.494 73.6422,117.158 60.2585,79.2418 C 58.2539,79.7372 56.1577,80 54.0001,80 51.8424,80 49.746,79.7372 47.7412,79.2417 L 34.3575,117.158 29.6426,115.494 49.8269,58.3111 C 48.7003,57.2204 48,55.692 48,54 c 0,-3.3137 2.6863,-6 6,-6 3.3137,0 6,2.6863 6,6 z M 49.4156,74.4981 C 50.8913,74.8267 52.4255,75 54.0001,75 c 1.5745,0 3.1085,-0.1733 4.584,-0.5018 L 53.9998,61.5109 Z"
             clip-rule="evenodd"
             fill-rule="evenodd" />
        </g>
        <rect
           style="fill:url(#paint2_radial)"
           y="0"
           x="0"
           id="rect992"
           fill="url(#paint2_radial)"
           height="108"
           width="108"
           opacity="0.1" />
      </g>
    </g>
  </g>
  <defs
     id="defs1105">
    <filter
       color-interpolation-filters="sRGB"
       filterUnits="userSpaceOnUse"
       height="120"
       width="120"
       y="-3"
       x="-6"
       id="filter0_d">
      <feFlood
         id="feFlood1000"
         result="BackgroundImageFix"
         flood-opacity="0" />
      <feColorMatrix
         id="feColorMatrix1002"
         values="0 0 0 0 0 0 0 0 0 0 0 0 0 0 0 0 0 0 127 0"
         type="matrix"
         in="SourceAlpha" />
      <feOffset
         id="feOffset1004"
         dy="3" />
      <feGaussianBlur
         id="feGaussianBlur1006"
         stdDeviation="3" />
      <feColorMatrix
         id="feColorMatrix1008"
         values="0 0 0 0 0 0 0 0 0 0 0 0 0 0 0 0 0 0 0.24 0"
         type="matrix" />
      <feBlend
         id="feBlend1010"
         result="effect1_dropShadow"
         in2="BackgroundImageFix"
         mode="normal" />
      <feBlend
         id="feBlend1012"
         result="shape"
         in2="effect1_dropShadow"
         in="SourceGraphic"
         mode="normal" />
    </filter>
    <filter
       color-interpolation-filters="sRGB"
       filterUnits="userSpaceOnUse"
       height="53.861599"
       width="58"
       y="28"
       x="25"
       id="filter1_ddi">
      <feFlood
         id="feFlood1015"
         result="BackgroundImageFix"
         flood-opacity="0" />
      <feColorMatrix
         id="feColorMatrix1017"
         values="0 0 0 0 0 0 0 0 0 0 0 0 0 0 0 0 0 0 127 0"
         type="matrix"
         in="SourceAlpha" />
      <feOffset
         id="feOffset1019"
         dy="3" />
      <feGaussianBlur
         id="feGaussianBlur1021"
         stdDeviation="1.5" />
      <feColorMatrix
         id="feColorMatrix1023"
         values="0 0 0 0 0.101961 0 0 0 0 0.137255 0 0 0 0 0.494118 0 0 0 0.15 0"
         type="matrix" />
      <feBlend
         id="feBlend1025"
         result="effect1_dropShadow"
         in2="BackgroundImageFix"
         mode="multiply" />
      <feColorMatrix
         id="feColorMatrix1027"
         values="0 0 0 0 0 0 0 0 0 0 0 0 0 0 0 0 0 0 127 0"
         type="matrix"
         in="SourceAlpha" />
      <feOffset
         id="feOffset1029"
         dy="1.5" />
      <feColorMatrix
         id="feColorMatrix1031"
         values="0 0 0 0 0.101961 0 0 0 0 0.137255 0 0 0 0 0.494118 0 0 0 0.25 0"
         type="matrix" />
      <feBlend
         id="feBlend1033"
         result="effect2_dropShadow"
         in2="effect1_dropShadow"
         mode="multiply" />
      <feBlend
         id="feBlend1035"
         result="shape"
         in2="effect2_dropShadow"
         in="SourceGraphic"
         mode="normal" />
      <feColorMatrix
         id="feColorMatrix1037"
         result="hardAlpha"
         values="0 0 0 0 0 0 0 0 0 0 0 0 0 0 0 0 0 0 127 0"
         type="matrix"
         in="SourceAlpha" />
      <feOffset
         id="feOffset1039"
         dy="1.5" />
      <feComposite
         k4="0"
         k1="0"
         id="feComposite1041"
         k3="1"
         k2="-1"
         operator="arithmetic"
         in2="hardAlpha" />
      <feColorMatrix
         id="feColorMatrix1043"
         values="0 0 0 0 1 0 0 0 0 1 0 0 0 0 1 0 0 0 0.25 0"
         type="matrix" />
      <feBlend
         id="feBlend1045"
         result="effect3_innerShadow"
         in2="shape"
         mode="normal" />
    </filter>
    <filter
       color-interpolation-filters="sRGB"
       filterUnits="userSpaceOnUse"
       height="75.158401"
       width="54.7145"
       y="48"
       x="26.642599"
       id="filter2_ddi">
      <feFlood
         id="feFlood1048"
         result="BackgroundImageFix"
         flood-opacity="0" />
      <feColorMatrix
         id="feColorMatrix1050"
         values="0 0 0 0 0 0 0 0 0 0 0 0 0 0 0 0 0 0 127 0"
         type="matrix"
         in="SourceAlpha" />
      <feOffset
         id="feOffset1052"
         dy="3" />
      <feGaussianBlur
         id="feGaussianBlur1054"
         stdDeviation="1.5" />
      <feColorMatrix
         id="feColorMatrix1056"
         values="0 0 0 0 0.101961 0 0 0 0 0.137255 0 0 0 0 0.494118 0 0 0 0.25 0"
         type="matrix" />
      <feBlend
         id="feBlend1058"
         result="effect1_dropShadow"
         in2="BackgroundImageFix"
         mode="multiply" />
      <feColorMatrix
         id="feColorMatrix1060"
         values="0 0 0 0 0 0 0 0 0 0 0 0 0 0 0 0 0 0 127 0"
         type="matrix"
         in="SourceAlpha" />
      <feOffset
         id="feOffset1062"
         dy="1.5" />
      <feColorMatrix
         id="feColorMatrix1064"
         values="0 0 0 0 0.101961 0 0 0 0 0.137255 0 0 0 0 0.494118 0 0 0 0.2 0"
         type="matrix" />
      <feBlend
         id="feBlend1066"
         result="effect2_dropShadow"
         in2="effect1_dropShadow"
         mode="multiply" />
      <feBlend
         id="feBlend1068"
         result="shape"
         in2="effect2_dropShadow"
         in="SourceGraphic"
         mode="normal" />
      <feColorMatrix
         id="feColorMatrix1070"
         result="hardAlpha"
         values="0 0 0 0 0 0 0 0 0 0 0 0 0 0 0 0 0 0 127 0"
         type="matrix"
         in="SourceAlpha" />
      <feOffset
         id="feOffset1072"
         dy="1.5" />
      <feComposite
         k4="0"
         k1="0"
         id="feComposite1074"
         k3="1"
         k2="-1"
         operator="arithmetic"
         in2="hardAlpha" />
      <feColorMatrix
         id="feColorMatrix1076"
         values="0 0 0 0 1 0 0 0 0 1 0 0 0 0 1 0 0 0 0.7 0"
         type="matrix" />
      <feBlend
         id="feBlend1078"
         result="effect3_innerShadow"
         in2="shape"
         mode="normal" />
    </filter>
    <linearGradient
       gradientUnits="userSpaceOnUse"
       y2="103"
       x2="54"
       y1="-2.5"
       x1="54"
       id="paint0_linear">
      <stop
         id="stop1081"
         stop-color="#0BA7FF" />
      <stop
         id="stop1083"
         stop-color="#097AFF"
         offset="1" />
    </linearGradient>
    <radialGradient
       gradientTransform="matrix(0,49,-49,0,54,54)"
       gradientUnits="userSpaceOnUse"
       r="1"
       cy="0"
       cx="0"
       id="paint1_radial">
      <stop
         id="stop1086"
         stop-color="#56CBFF" />
      <stop
         id="stop1088"
         stop-color="#56CBFF" />
      <stop
         id="stop1090"
         stop-opacity="0.2"
         stop-color="#40C4FF"
         offset="0.0001" />
      <stop
         id="stop1092"
         stop-opacity="0.4"
         stop-color="#0042F9"
         offset="1" />
    </radialGradient>
    <radialGradient
       gradientTransform="matrix(93.000098,93.000098,-93.000098,93.000098,10.5,14.5)"
       gradientUnits="userSpaceOnUse"
       r="1"
       cy="0"
       cx="0"
       id="paint2_radial">
      <stop
         id="stop1095"
         stop-color="white" />
      <stop
         id="stop1097"
         stop-color="white"
         offset="0.307292" />
      <stop
         id="stop1099"
         stop-opacity="0"
         stop-color="white"
         offset="1" />
    </radialGradient>
    <clipPath
       id="clip0">
      <rect
         y="0"
         x="0"
         id="rect1102"
         fill="#ffffff"
         height="108"
         width="108" />
    </clipPath>
  </defs>
</svg>
